/* XPM */
static char *floor1659364120[] = {
/* columns rows colors chars-per-pixel */
"32 32 43 1 ",
"  c #651C00",
". c #6A1E00",
"X c #721800",
"o c #672100",
"O c #6D2300",
"+ c #732500",
"@ c #7A2500",
"# c #752901",
"$ c #7C2C02",
"% c #772D09",
"& c #7B2E09",
"* c #7F3105",
"= c #75310A",
"- c #7D320B",
"; c #7E3711",
": c #72683E",
"> c #822D03",
", c #8A2E06",
"< c #832E08",
"1 c #8A2F09",
"2 c #843205",
"3 c #8B3305",
"4 c #84330B",
"5 c #8B350B",
"6 c #86390D",
"7 c #8C3A0D",
"8 c #913505",
"9 c #91340C",
"0 c #923A0D",
"q c #833710",
"w c #8C3611",
"e c #863912",
"r c #8C3B12",
"t c #8F3F19",
"y c #923711",
"u c #923D12",
"i c #903E18",
"p c #8F4017",
"a c #944115",
"s c #90411A",
"d c #DFB500",
"f c #E8C831",
"g c #FFF83A",
/* pixels */
">6#oe230rX4a35s%=;qwe;-Orwwt6o*@",
"4r#.r380r+2a39s%=;qeq--#rwwu6#77",
"7t+.7388r+4u33i%o%@%%##.wywr6+ru",
"7a#.r888r+<u38u% +@X+O#.w55w*O7u",
"5a&Or3335#<u89i&O-514--$59706O70",
"2i-O7333w&<w80r&%ewwr47*19506#00",
">a-O7333e&49,0t&#657756$,,,77+00",
"3a-Ow333w&478::::::0wr7@9,376#00",
">a6.47307#q::gggggg::7r@89537$70",
"@uqOt735r%:ggffffffgg:r@,9857$30",
">ae+r323q:gffffggffffg:>89936$70",
"3r-.$@@@:gffgffggffgffg:,9997$55",
"8uqO$@@>:gffgffggffgffg:19576#73",
"0ue&tr0:gffggffggffggffg:9y46$42",
"834*r75:gffggffggffggffg:9y5q#7<",
"086*u75:fffggggggggggfff:9i46$1<",
"3a$2a73:fffddddggddddfff:0574+51",
"77$2736:fffffffggfffffff:0174+5,",
"3a22a33:fffffffggfffffff:9154+55",
"2a22a732:dfffffggfffffd:,9546+55",
"6a$20032:dfffffggfffffd:y,75q*45",
"3a$*05337:dffffddffffd:4w,74r*55",
"57>>075371:ddfffffffd:7491w5r-45",
"70>>009501>::dddddd::r625,74r45,",
"57>2007053251::::::944r$5>>16#w@",
"5r2>755551254qq<$u99326#XXX++Oi5",
"4r>>53500>574ww<>t0y527#y1<<#.w5",
"47@>42507>1w4ww&$79y44r+y95w-.7,",
"47$@2>407>47<7i&$r5y44r#514w4Or>",
"6r$$42407@2r4wi$$710546#iw5r6Ow>",
"6q@$623a7@>r<rt$$719446+w114;+w<",
"$*O#2*2a7+2r<rs$$5,y7$6Xyywt-.<@"
};
