/* XPM */
static char *door1659706018[] = {
/* columns rows colors chars-per-pixel */
"64 64 178 2 ",
"   c None",
".  c #161B29",
"X  c #3C1E23",
"o  c #1C222E",
"O  c #2B2226",
"+  c #23232B",
"@  c #292128",
"#  c #2C2B2A",
"$  c #222024",
"%  c #322224",
"&  c #3F2122",
"*  c #35262A",
"=  c #3E2729",
"-  c #36292C",
";  c #3E292B",
":  c #392D27",
">  c #3D3025",
",  c #222631",
"<  c #262B36",
"1  c #2A2C35",
"2  c #2A2E38",
"3  c #342E36",
"4  c #372F38",
"5  c #3C2E33",
"6  c #2D323B",
"7  c #31353D",
"8  c #39373C",
"9  c #45261E",
"0  c #47281E",
"q  c #4B2B1C",
"w  c #502F1C",
"e  c #4F301C",
"r  c #4E3A1D",
"t  c #563617",
"y  c #583717",
"u  c #573817",
"i  c #5C3C16",
"p  c #53331A",
"a  c #583719",
"s  c #57391A",
"d  c #5B3B19",
"f  c #603F15",
"g  c #422421",
"h  c #472821",
"j  c #4A2B22",
"k  c #422E2E",
"l  c #4F3223",
"z  c #49372A",
"x  c #523324",
"c  c #5A3B22",
"v  c #523E24",
"b  c #412F31",
"n  c #453534",
"m  c #463C3C",
"M  c #4B3E36",
"N  c #50373B",
"B  c #5E4119",
"V  c #654315",
"C  c #684715",
"Z  c #6A4815",
"A  c #63431B",
"S  c #69471C",
"D  c #66491B",
"F  c #6D4C1B",
"G  c #714E1A",
"H  c #6F501F",
"J  c #75521C",
"K  c #79561D",
"L  c #7C591F",
"P  c #51402F",
"I  c #5C452B",
"U  c #4A413E",
"Y  c #52413F",
"T  c #694721",
"R  c #6C4B21",
"E  c #674B2D",
"W  c #714F20",
"Q  c #745321",
"!  c #785622",
"~  c #7D5B21",
"^  c #6E5339",
"/  c #363A42",
"(  c #393E44",
")  c #453F43",
"_  c #3C4146",
"`  c #3F444A",
"'  c #454243",
"]  c #4E4847",
"[  c #41454C",
"{  c #494749",
"}  c #454A4E",
"|  c #4D4440",
" . c #564A45",
".. c #574B49",
"X. c #594C4A",
"o. c #5B554F",
"O. c #464A52",
"+. c #494D52",
"@. c #534C53",
"#. c #4D5254",
"$. c #4E5259",
"%. c #565057",
"&. c #555B55",
"*. c #5E5A55",
"=. c #525559",
"-. c #555A5C",
";. c #595E5A",
":. c #585356",
">. c #605752",
",. c #635F59",
"<. c #625A55",
"1. c #5C625C",
"2. c #64635D",
"3. c #6C6059",
"4. c #5B5E62",
"5. c #5F6466",
"6. c #626761",
"7. c #646A64",
"8. c #6A6C66",
"9. c #65696A",
"0. c #6B6F69",
"q. c #62656B",
"w. c #746B67",
"e. c #677067",
"r. c #687067",
"t. c #6D726B",
"y. c #6F796F",
"u. c #72746E",
"i. c #70786F",
"p. c #6B6E72",
"a. c #726B7E",
"s. c #757672",
"d. c #727A71",
"f. c #7A7B76",
"g. c #747579",
"h. c #777A7A",
"j. c #7B7E7A",
"k. c #797471",
"l. c #815E21",
"z. c #856224",
"x. c #896625",
"c. c #8D6A27",
"v. c #896728",
"b. c #8C6929",
"n. c #916D2A",
"m. c #95712B",
"M. c #9A762E",
"N. c #807E7D",
"B. c #7C827C",
"V. c #82847D",
"C. c #7F8280",
"Z. c #838583",
"A. c #858885",
"S. c #898B86",
"D. c #8B8D8A",
"F. c #838488",
"G. c #8D928B",
"H. c #90938D",
"J. c #8F9093",
"K. c #959692",
"L. c #969995",
"P. c #999A96",
"I. c #9A9C9A",
"U. c #A09F9E",
"Y. c #9EA19C",
"T. c #A2A29F",
"R. c #A4A4A1",
"E. c #A5A9A4",
"W. c #ACADA9",
"Q. c #A9A9A5",
"!. c #ACB0AA",
"~. c #B1B1AE",
"^. c #B4B6B2",
"/. c #B7B9B6",
"(. c #BDBDBB",
"). c #C1C0BE",
"_. c #CACAC8",
"`. c #D3D2D1",
/* pixels */
"      S.H.S.h.D.V.Z.u.f.u.#.&.&.$.< 4.!.D.L.V./ u.P.0.t.u.f.Z.u./ T.S.H.Z.Z.D.S.< < u.;.;.t.2 2 R.R.u.u.&.1.1.( K.B.6 4 3       ",
"    a.R.T.h.A.f.u.u.t.t.6 h.Z.A.t.6 -.f.j.j.s.7 1 S.S.7.7.7.7.7.o =.W.B.u.u.f.j.B.< 7 u.6 2 s.s.V.u.7.1.&.t.( V.G.Z.$.t.D.%.    ",
"k.K.W.p.G.#.9.y.u.0.s.[ &.Y.t.5.1.t.7 t.t.t.u.i.u., D.B.d.y.u.u.o . D.} 7.7.u.u.< L.I.g.u.t.1 =._ j.s.1.u.u.#.R.t.u.7 p.R.P.@.3 ",
"S.R.0.V.t.j.O.t.t./ 7 u.A.i.5.2.y.7.2.6 i.d.i.' 8 $ $ N P z t o o t p t { :.u.[ 6 7.7.d.E.u.. Y.j.} u.=./ I.T.2.t.i.B.K.P.u.f.4 ",
"9.H.y.y.j.h.d.. . _ _ 8 < 7.t.t.7.t.t.7 ( 8 : w t p f & q q q O O q q 9 e e e U :.o.y.y.6.d.+ H.P.F._ s.p.S.u.2.u.s.[ K.j.u.u.u.",
"} w.6.j.h.e.y.=.G.P.d.i.7.< 6 7.t.u.u.1 M t q X q w & & 9 9 0 & % q t 9 q q q X & t | +.+.d., R.S.j.=.=.s.7.+.[ [ -.).P.B.B.u.u.",
"8.1.V.B.e.1.} R.P.A.i.7.t.h.6 o , 1 > t w e 0 g 9 & & & 9 9 9 & & q q & q q q X & 0 q c  .( 1 P.L.g./ -.=.#.9.j.9.(.T.0.0.V.u.d.",
"1.1 1 2 ` _ 7 T.s.s.s.s.7.o < #.l t p & w q q g 9 9 & & 9 9 9 & % q e & & q q 9 & 9 q q 0 I ,.T.C.Z.h.7 V.(.~.W.L.( s.0.u.B.u.i.",
", 2 A.V.` 8 0.5.i.s.s.7.1./ < t q q q & w 9 9 & & 9 & & 9 9 q & % q e q g q 0 0 g 9 q q g q q q e & t 7 T.B.u.u.2 j.[ _ _ ( [ 6 ",
"9.E.S.D.1.h.s.f./ 7 6 _ ( + t q 0 0 q & w q q & 9 9 9 9 q e q + $ u t u g q p q X 9 q q & q q q e & q e m ;.2.t.< t.j._./.).^.Y.",
"Z.D.7.h.7.d.s.s.1.#.2 6 7 e q 9 9 0 0 & w q 9 & 9 9 q & e i p $ $ u q u g p a p & q q q & 0 q 0 q 9 q q q U U t.7.< -.K.G.A.B.B.",
"F.y.d.7.u.u.u.u.u.6.' 0 p e q 9 & 9 q g q q 9 9 i y i 9 f V p o o V t q g V S S & p q q & p l q e & q 0 q e 3.2.d.1 V.B.7.7.y.y.",
"#.d.6.1.u.u.u.y.:.e e 9 q q 9 9 9 0 q g q w y 9 G V V 9 f V t o o V t 9 9 Z t V & y S c X q q q 0 9 q q q q q e , B.T.1.1.e.y.y.",
"u.u.1.y.e.y.t.z e e q & q q 9 9 g q w & p i C 0 G f f 9 f V t o o V i 9 & F V V g C S p X d a p q & 9 d e & & q t t B.5.7.7.e.d.",
"< 1.u.7.y.{ e & e e q 9 9 q q 9 9 w q g V V C 9 Z V f 9 V V t o o B V 9 A V V V g C J C X i S y p g w f e & & q e & t.< < _ _ O.",
"< 2 7 7.m p u X e q q & & q e 9 g f t g V V F 9 Z f & & V t t o o V V V g C V V X V ! V X V Q f d g d y C X & r p X p p < 2 9.} ",
"R.$.6 3 s u t X q q p & g q w h q S f g f d W h V t 9 j V t t o o V t V g C V g & K V C X C l.C C g f f W X & p p X a t j.R.j.E.",
"s.P.H.w.d e e X w w p g & p s 0 0 p f 9 p Q y g t t g t C t t o o f t G g C V X X L C C X C l.V C g Z y ~ X & p p X s s a d.t.t.",
"t.u.s.  E e p & w d g & f f W j q f i g p Q t g t t z.9 V y t o o y t J g C C g X W V y X c.C C V & C C ~ g i p g X a a u B.t.d.",
"u.u.s.| t e t X s p g g f l.A p p C i & i ! V g t t z.g V d y o o t y J 0 F V X X Q V t X n.C V p g C C C t g F 9 X d p t B.0.e.",
"u.u.d.U p e t X c a g & G z.f p t V V X ~ a V & t G z.g J S t o o t t j C C C & X L t t X ! z.y y 9 C a z.g X i 0 B B u t B.7.y.",
"u.u.u.M e q t X s A 0 & F J F d 0 C p & Q y C & t x.C g S t t o o t y j C F C S X K C t X Q C z.0 g C C x.X X f 9 F B d t B.t.y.",
"s.u.t.n e p t X d S j g J V F x q C & g ! V V & S c.C j i t t o t y y j V F C G X K C t X l.C z.0 g C C C X X C 9 d D t t B.0.7.",
"7 7 7 n O O O X d V j o o o o o o o o o o o o X n.t C g V t o o t V y j V C V V h o o o o o o o o o . , o X X A o o o o o O.9./ ",
"s.G.s.k % O O O $ . , o o o o o o o o o , . , o o p J g i t o o t C t g L F t o , . , o o o o o o o o o o o o o o o o 6 B.Q.D.[ ",
"(.W.u.; O $ $ O f G T + + + o o o o o o , . o x A a K 9 t t o o t C V 9 j C C t g o o o o o o o o o o o o X n.V o o o o s.d.L.P.",
"1.u.w.; q t O X V J J j y G a p p K C g V a & j A C J g d t o o C C C V q V V C g C V t X p t V C x C C t X n.C C 0 B t s.B.6.d.",
"1.u.8.; q t e & V F Q h Q J i 0 w G F g V y & g A C J g a y o o C C y V j z.i C g C C t X a t C Z x C V V X V m.t q B s y.B.6.d.",
";.u.,.= q t w & V G ~ j Q i V q C F G X V J V g f ! V 0 y t V . t C a V j n.d C g G C a X y f Z a l S C X & V m.t q B t g.j.B.e.",
"&.s.,.k q t q X V J g l V V V 0 C Q V & V J V & A K C 0 V C V o t C V V j W C t g G A f X f C C V l C C X 0 C m.V 0 d t s.6.j.e.",
"1.t.2.; q p q & V z.V & d V V 9 C ! V & G C C 9 A K C 0 C C t o t C C C h Q C C g C A f X f Z y V l F t X & C m.C 0 i u h.B.7.t.",
"t.1.,.k q p q & i x.i g d V V 9 C J C g G C V & F J C 9 C C t o y Z A p h J C C g S f V X C C t C l C V X X C M.C 0 B t 7 Z.5.y.",
"6 1.2.k q p p g V z.~ & t V C g V K X g J C C X F A C j t t t o t C C X n.f J C g x.A V X C Z C C x C V J X t M.d 9 B ^ R.6 6 +.",
"O.6 3 - q p w X V R b.& a V u 0 C L X X G C V & F A 0 0 V t t o y C C & b.C G C X z.F C X C t C 0 x C f K X V M.i 9 B d R.`._./.",
"(.(.k.; q a q g i y c.g u d V g C L g g C C V X Z G 9 0 C t t o C C C X c.C C C X z.G C X F C C x j C V K X M.C C 0 V t s.B.0.0.",
"y.Y.W.; q a p & V p z.g t u V g C L C q C C C X Z F g g C t t o o y C X x.Z V V & z.J C X C C C j g 9 C K X M.C V 0 A u F.C.0.y.",
"y.7.u.n s p p g F a v.& u t V 9 F L y q C C S & Z G q q C u t o o t C X z.z.V V 9 x.G C & t C Z j g q f K X M.V C p D u F.5.r.i.",
"y.0.u.k p e p g F a v.g p t V g Z L y 0 V C C & Z Z 0 C V u t o o t C X x.l.C C 9 x.J V X l.Z C F 0 t f J X M.V C 0 D u F.2.1.B.",
"d.7.s.k p e p & S p v.X ~ a V g G L t h a C C 9 C C j Z C t t o o t F X x.C L t 9 x.G V X L C F C & f C K X M.S D 9 D u A.1.1.B.",
"r.u.d.k e e a g p F b.g ! t C j L C ! h f C C X C C j C V t t o o t C C X C C 0 j C J V X C L t C 9 C K t X M.V 0 C D u A.2.1.y.",
"r.s.u.b p p d X a F ~ g ! p C 0 G C ! 9 f C F g C u q C C u t o o t f C X z.C 9 x C F C X t K t C g C L t X M.D g 9 D t Z.0.5._ ",
"r.u.8.m s q a g V G ~ g ~ p C 0 a K ! j f C C g C H o 0 V V u o o t f f X o C g x.C V C X C C d C g C L t X M.C g g D t [ 6 2 / ",
"i.< 6 - p q a & D F Q g d ! C h t J l.0 f C S g V J o & C C u o o t V p X , a X x.C C t X C C t C 0 C ~ t X M.S g & A t A.Y.A.d.",
"1 6 2.; q q a & C ! K X a ! V h t J l.0 f V S h V I o + C V V o o t V 9 . o t g x.C C t X Z y t F 0 C H t X b.C & & A u A.d.G.Y.",
"u.(.S.= q p p 9 d A z.& f ! f 0 y J l.q V C V g + # o o o C C o o f f X o o + j C C V Z X Z t t J 0 L d t X v.V 9 X B t S.9.7.d.",
"W.~.2.= q p w & d i ! g f ~ Z j t G l.0 f V V j # A V & O C C o o t V o 0 K + + C C V C X y t t q 9 L t t X z.C g g B t S.y.7.y.",
"0.u.,.k q w p 9 d V ! g f ~ C 0 f F x g f C V h # u 0 0 + u C o o t V , g l.o + x.C V Z X t C t j 0 J t V X z.C l g B t A.A.6.y.",
"y.u.>.= q q 9 9 d C ~ g V ~ C g V F x g f C V & x.O o + C Z t o o t V . o o o 9 l.C V C X C l.V j 9 J t V D X V j g g a g.S.7.y.",
"i.u.>.; q p 9 0 d V l.g f ~ C 9 C f c h a C C g x.V V q C Z t o o t V C x C V j V l.V F X C l.Z L 0 i F V & X V j V g t s.F.6.e.",
"6.i.X.g q p g g C V z.g i ~ F 0 C i z.q V C J g x.C V j V F t o o V t C x C C G 9 V K C & & z.Z l.0 V S u X X V j C d t s.S.7./ ",
"6.u...; q d y g C V z.g V A C 0 C V l.q V V G g x.C h 0 C C t o o V t C j C C G 0 t V J X X z.V z.9 F S V X & C g B d t g.E.+.2 ",
"6 u...= q p p 9 f V l.g f f Z 0 C V x p f V L 0 z.C g C C t t o o t V V j C C J 9 t C F X X x.Z z.9 J V C X X V h S t t I.(.W.P.",
"p.< * * 0 p q 0 J V L g f f C 9 C V x q t B z.0 ~ S F 9 C t o o o t V V j V C V 0 C C u X C c.Z l.0 D J C X V V g V t t h.A.0.0.",
"W.h.b * 0 p q j V t L g t f C 9 V V c p t V z.g ~ C G 9 V t o o o t V C j V V C 0 C C t X C x.V l.0 u J C X B J h V d p k.F.7.y.",
"&.i.Y q q w q 0 V t ~ 9 t f C 9 V u l u t V z.9 ~ V F j C t o o t t C g h V V t g V C d X C t z.I 0 C J C X V ~ o g d a s.A.0.i.",
"1.1.- % % % q 9 V f # o + o o o o o o $ o o x.0 a z.G 9 V u o o t t C & g u C t g o o + o o o o o o o o o & z.o o o o , s.V.7.d.",
"s.1.* % % % % + o o o o + o o + o o o o o o o o o z.S h V u o o t t C & g d C o o o o o o o o o o o o o o o o o o o o o s.C.t.y.",
";.1...% % % p @ o o o + o o o o o o o o o o o g y ~ G g V s o + t t V g & i C g g o o o o o o o o o o o o o ~ o o o o o s.C.y.y.",
"1.u.>.% O % p & ~ V C o o o J 9 C D 0 V V V z.& 9 L g 0 B u o o t t C X & B V g l C a X X C V l.C q B t r X l.a o o s o g.C.7.d.",
"s.1.u.q q p p & l.f C F C t L g C D h e D D K 9 9 ~ 0 g B t o + t C C X & i a g j t t X & C V ! C g C u d & X u e e p u s.A.t.t.",
"s.1.u.n e e p 9 ~ t S g Z t K 9 D S t q S V H 9 g ~ 9 g B u o o u V Z & ! B a g j V t X & C u L B 9 C u K X X V g V V t s.< < < ",
"u.1.1 * q p e 9 ~ t V g C F F g D y t e V V J X j C C q B t o o d S Z X c d t 9 L C u X X C Q V d 9 C t J X H C h V V t j.Q.S.0.",
"5.< 1 k 0 e 0 9 V ! V h C F Z 9 V d A q V V z.g j V C h H t o o t V C & x g V g L V d F X C Q u d g C V Z X B C 0 S V t Z.D.D.^.",
"W.W.7.k q q q 9 V ~ V g C K Z 9 a B a p Z z.V g ~ C C g p t o o o d C X d 0 V & L V A C X C L u d & C C D X D V 9 B V t g.Z.0.y."
};
