/* XPM */
static char *exit1659200952[] = {
/* columns rows colors chars-per-pixel */
"64 64 71 1 ",
"  c #554E4F",
". c #56514F",
"X c #59514E",
"o c #565251",
"O c #5C5553",
"+ c #5F5956",
"@ c #5F5A59",
"# c #605656",
"$ c #615A57",
"% c #635C5A",
"& c #695F5F",
"* c #66615D",
"= c #68615F",
"- c #575D63",
"; c #5A5E63",
": c #5C6166",
"> c #5E6469",
", c #696461",
"< c #61666A",
"1 c #63696E",
"2 c #686B6F",
"3 c #76726F",
"4 c #646B71",
"5 c #6A6D72",
"6 c #6D7276",
"7 c #6E7478",
"8 c #767671",
"9 c #7A7672",
"0 c #7E7A75",
"q c #717479",
"w c #7F7C79",
"e c #807C77",
"r c #827E79",
"t c #838077",
"y c #85827D",
"u c #88847F",
"i c #7A7F87",
"p c #7B8187",
"a c #7D838B",
"s c #7F888F",
"d c #7E8690",
"f c #7E8992",
"g c #868481",
"h c #898682",
"j c #8B8986",
"k c #82868D",
"l c #85898E",
"z c #8C8C8B",
"x c #908E8B",
"c c #92918E",
"v c #828791",
"b c #838B93",
"n c #8B8E92",
"m c #868E98",
"M c #918F93",
"N c #8E9194",
"B c #899199",
"V c #949494",
"C c #989696",
"Z c #979895",
"A c #999896",
"S c #959699",
"D c #999798",
"F c #96989A",
"G c #9B9B9C",
"H c #9EA09F",
"J c #A0A09F",
"K c #9E9FA0",
"L c #A09FA1",
"P c #9FA0A1",
"I c #A1A2A2",
/* pixels */
"1<11;>><<;><<>12<<2115562666q77776561141<1>111<<<111144114414>41",
"mbsbvvdifmvvasfsssvkvvbkfbbbbbbBBmmbbbbbbvdvbvbbbvvvksaddbbNBbbb",
"appkikivdvkkaskkkskkplkkllskkkbnnmbbvvvvbllvvkbvaviipkikkkkkksaa",
"kkllnbmnbnbnnnnnnjlbllllnllnnNNnnNnnbbnnnMbvlknvlvvvllllnblllksk",
"llnnnNNnNNnNNVnVznnxVzMlnMMNNMNVNSVVVnnMnVnnnnnnMznnnnnlnllbllll",
"nVVnNSNMVNVVVVSVVnxMVcMnMMNVVVSFSSSSVVVSVBVVVVMnMMMMMMVnlzlzlcMl",
"MVVVVNNNVVSSSVSVVVVVzVVSVVFVGGGGKKKGFDFFVSVSVVVVMMMSVSMMMzlznzzM",
"VSDSSSFKGFSSSDGSSFGAVSSGFGKKKKIILKKKLKGKGGDSGDDCSSSSVSNSVVVMVVVS",
"GKKPPPJHPPGJGJJIIIJGJGJHJIIJIIIIIIIIIIILIJGJJGGGSGGGSSFFSSVSSSVC",
"GPKIIIIIIIJJIIJIIIIJIIIIIJJJIIIIIIIIIIIILJLJGGGGGAGGGGGGDDCCCGGG",
"GKGGPHHIIGIJJGGJGGGGJLJGJJJJIIIIIIIIJJJJJGGGAGGDGCSAGSVZGAACCAAG",
"GGGGGGAGGGGGAGAGACCCAAGCCCAJJJJAJLIIAJAAAAACCCCVVVVVVccVVVVVcVVS",
"VncVNcNccVVcVVccxxcVccccCccccCcCCVcZcAcAccxxcxxxjxxzzzzzzcczcccc",
"hhgjjggjjjjzjjjjjjjjxxxxxxuxxjxjxxxxxuujjjjjjjhjhjhhhhjhgjhjjhhj",
"rewryyywgggyggyguujuuuujuuuuuhhruuuhuuuuyyuuyrurreyrrrrrtrytyyyu",
". .O@oo+@%%O@O+@####$$$$$$$$#X#X##O$$$#OX##OXX#Xo OXooooOoooOXX+",
">>::>:>>><<<<<><::::::::;;:;;:;<::>>>>>>::;;;::;----;;;-;<:>>>>>",
"sfdffdffbfbbbbbBbbblksfnnbbnnnmnmnmnmnbvskbbbsvsvdkskvvddddidfbm",
"kkbkkkbnnsknlkkllknllaslklklvkkvbkbllkaapppkkppkakkpakkvbkvlklbb",
"nnNNBNSBVNBNFNNNcNNNNNNVMnbvnklnNnnnnnnnnNNBNnnnnVlllbnMnblllbll",
"nnBnNNBFFBSSFSVnMnBVVVSSSNNNnNBSBSSFKSBFFFFFFFZVVVVnnNNSSnzlzMln",
"VNVSFVVFFFFFFSVVVMnBSFSFSKKSVFFSFFSFKKKKKKGGGGHFDSFSSSSSKSVVVVVV",
"SSFKGFFFFFFSFFSGVVBGKKGGKPKGFFFGKKFKIIKIIKKKHHHHGGGGFFFDSSSGAVVV",
"SKKGGFGGFPFKKKPGKGKKKIPPPIKGPPIJKPIPIIIIIIIKHIHHIKGKKGFGFKGGGGSS",
"VVSGGGGSGKIPPPPPKLLIIIIIIIJIIIIIKKIIIIIIIIILLIJJJJJJGGGGGGGGGGGA",
"MVSSAGGGGGKKPIGHGGGGJJIIHHHHIIJHKKJJGLIIIILJGGJGGGGGGCGDDDSCSVZV",
"VVVCVVSZAGGGGAAGSGGGJGHHGGGHGGGGGGGGGGLLGGGGGZAcVAAAZVCCSSVVSScx",
"zxccczcNVcVVcVVccVVxcVVVVACSZAGZVSASDSDDCVSZZZcccVVVccVVxxcMxxMz",
"hjjjjjjjjjzjzzjzjjjjcxzzzzcxxcccjxxxxxxxxxxcczxjjjxjjgjjjjjjjjhh",
"yyrggyyyyyhguhgyyuyuuugguujuhugguuyyruyyyytygyuyrrrurrurugguuygr",
"80werwwwwtyt0ytwrrrrtttt0w00ttttyrr90rerrrrryre990eeerre099reew9",
" OOOOOoOooO+.XOO#OOOO+OO+@@++@@+$$++OOoO$XXOOXOO OOXX$##XXX###O ",
"5414<<;<;;;;<::;;;>;>><:>>1>>1><<:>:-;-;;;::::><::<<<<<<<2556555",
"mmnnbmmmmbbbnmmnmbvvvssbbbmNnmbmnbvbbbddvbbfssbsskbkkbmbbBbbmbbN",
"nnbbvvvvbvaavankivkiippkklkkvdiiappkpaaaksakaakskkkakkkkkkklksbN",
"nNnMbbnnnMnnkkbbvvllbbllbnlbkkklsklbbbnbbnnnnNnnlllzjlklNllNnNNN",
"NSNNMMMnNMNNnnnnMznnnnnnnzlllnllnznnMVNmNBnnnnVVVznMVzVlnnnNNNVN",
"SSKFSMVSMNVVVMnVMMMMMBVlllzllzzzzNNnMVNMVMVVVVVVVNzxzVnnMMVVSVSS",
"KKKFFSSSSMSVVVVVVMMVVVNVVllxlMMzMNnNVVMVVVSSFVSSVVVVVVVSVVSGZHGG",
"LLLKKLKGLFSKGDDCDSFVSVVVVVVVVVVVSSKVKVSKKFSFVFGASGSSVZFSSKGGHHJI",
"ILIIIIIIJJGJGGGCSFGGCDSFVSVSVCSSKKGKPPIHIHGHGJJJJIJHJJJJKKJLIIII",
"IIIIIIIIJJJJGJJGGGGGGDGKGASSAGGGKLKLIIJIIIJJIIIIIJIIJIJJLLIIIIII",
"IIILLLIIJGJGGGGCFDDGGSVSAGAZVAGAGLKKGIHJIIIJPGHHGGGGJJJJGLGJIIII",
"ILJGGGGGCCCCCCVZVVVVVcccVZVVVVVASKSSGGGFGAGGZAGAAACAACAGGDGGJJJI",
"ZccAVccCxcccxxxzxzxzjzczjNzzccccMMMxVxNVccccVcczccxVccZccAAcccZc",
"xxxxjjuxjjjjzhhhjhjghhhhjjjhhhjhjhgzhhhjjjzzzjjljjjjjxjxxxuuxxxu",
"uuyuuuuuruhrrryyrrrrwrtwrryyyyyyreeegyrrgggyuygggghhuuuuuuuuuuuu",
"$$#$###$O##OOOXXooO..oOoOo.oOXOOX XO@OoO@%%+$+++###O$$$#$&$$$X#X",
"*::>>>>:;:::;;:;---;::;-;>>><>><>>::>>><<<>1<<>>;<;;;;;;-;:;-;>>",
"nmbNmnbbkvkbbfvfdkkasddvddaasbbbdddfdabbbfbnbkbBbbnbbvmnmnnnnnmb",
"kkllbkpappplvppkkkkaplkklkddkklbfkblskbnllllnkklllnklavbkkkllllk",
"NNnNnnnNNnNBVzMbnnlnlbnMnllblbllnbNNNNBNNNBNSNNNnNNNNnMNVnllnlvn",
"BFSSKFKBFFGFSSFSMVNNnnBVVnnbMnlnNNNNNNBSFVSSSSNNVnmVVVSSNVNnvMVS",
"FFFSFKKKKKGGGGGGFFFFSVDSKFVVVVVVNNNSFSSSFFFSFSSVVznSBKSSSKKSVSKS",
"FSKKKPPPPKPGGHHGGGFGGFDDSFDFDCVVFFFPGFFFFFFFFFSGVVSSKKKKKKKGFFBK",
"PKPPPIIIIPIPPIPPLLLKLGGDFKFGGDSCFFKGFGKFFKFPPPGGGGKKKKKKILKKPKPK",
"LLIIIIIIIILLLIPIJJGGGGGGGGGGGGGCVVAGGGGDGHPPPPPPIJJJIIIPIIIJIIJI",
"LKLLKIIIIILKGGGGGJJGGGGADDVCGCVVNVVSAGSGGHGPPPGGGGGGPPHHPKPIIHJH",
"GGGGKGGJKGGGGAAVVACGZVZZSSVVVVMMcVSGSSSCHAAGFGAGAGGGHGHHKGGGJGGG",
"VCDVDDCASSCCZZccxVVVxVcVcxcMxxxnzzxcczxccVVVVVVccVccVZZVVSSCCGAA",
"jxxxxjccxxxxxxxjhzzjhhjjhjjjzjhhjjjjhjjjzjjzjzjzjjxjzxjzjcczxxxx",
"huuytyyyyyyyuuuyrryyreuyhyghgryrwyyguyyygggghjhyyuyhughuuuuhjhjh",
"rr998000e0ee0t0893090eee999r00088000wwww00t09r00wwtw0e000000errw",
"===***@***%*%$**$%%%&&**%O$&&&%@O%%$%*%@%$**$%%**%%%%****,,**=**"
};
