/* XPM */
static char *exit1659532842[] = {
/* columns rows colors chars-per-pixel */
"32 33 152 2 ",
"   c #2C1E1E",
".  c #3D1F1F",
"X  c #3E241E",
"o  c #3E2A1F",
"O  c #111C2E",
"+  c #191D2D",
"@  c #131E30",
"#  c #2E1F22",
"$  c #1D222D",
"%  c #1C2432",
"&  c #2D2425",
"*  c #2D2926",
"=  c #23242B",
"-  c #2C2529",
";  c #25282B",
":  c #2D2929",
">  c #332625",
",  c #3F2121",
"<  c #352B24",
"1  c #3A2C23",
"2  c #332B2A",
"3  c #3A2D2A",
"4  c #3C3224",
"5  c #39342A",
"6  c #322F30",
"7  c #382D31",
"8  c #393432",
"9  c #411E13",
"0  c #5E3B0F",
"q  c #452416",
"w  c #482615",
"e  c #4C2B16",
"r  c #44241E",
"t  c #48271A",
"y  c #46291D",
"u  c #4B2C1C",
"i  c #512F1A",
"p  c #44331F",
"a  c #4E311C",
"s  c #4C381D",
"d  c #553415",
"f  c #5B3717",
"g  c #563917",
"h  c #5C3B16",
"j  c #53341B",
"k  c #59361A",
"l  c #56391B",
"z  c #5B3B1B",
"x  c #623E15",
"c  c #613E1A",
"v  c #452622",
"b  c #4A2C21",
"n  c #412F2D",
"m  c #433322",
"M  c #4C3521",
"N  c #4D3A24",
"B  c #46322C",
"V  c #543420",
"C  c #543C23",
"Z  c #5C3C20",
"A  c #543C2A",
"S  c #433A3C",
"D  c #4A3A3B",
"F  c #5E4116",
"G  c #5F411B",
"H  c #644215",
"J  c #694615",
"K  c #6C4916",
"L  c #63421B",
"P  c #68471A",
"I  c #66481E",
"U  c #6C4A1A",
"Y  c #704E15",
"T  c #714E1A",
"R  c #755317",
"E  c #74521D",
"W  c #7A561F",
"Q  c #7C591D",
"!  c #5E4222",
"~  c #4C433A",
"^  c #524437",
"/  c #52443F",
"(  c #634322",
")  c #684720",
"_  c #614923",
"`  c #6A4922",
"'  c #755322",
"]  c #795721",
"[  c #363B44",
"{  c #443D43",
"}  c #3D4146",
"|  c #4B4343",
" . c #444846",
".. c #4E4846",
"X. c #444A4C",
"o. c #544643",
"O. c #554B45",
"+. c #5A4D44",
"@. c #574A48",
"#. c #59504C",
"$. c #464B51",
"%. c #4B4F54",
"&. c #4C5256",
"*. c #4C5358",
"=. c #525655",
"-. c #5C5551",
";. c #5E5C55",
":. c #555A5A",
">. c #5C5D5E",
",. c #605342",
"<. c #655845",
"1. c #68594D",
"2. c #625553",
"3. c #5D635E",
"4. c #66625B",
"5. c #6B615F",
"6. c #746855",
"7. c #5B5F61",
"8. c #5E6362",
"9. c #5F6368",
"0. c #616564",
"q. c #656A65",
"w. c #676C6B",
"e. c #6A6E6C",
"r. c #706C67",
"t. c #6C736B",
"y. c #71756E",
"u. c #73786F",
"i. c #706F70",
"p. c #6D7472",
"a. c #6E7872",
"s. c #737673",
"d. c #757B73",
"f. c #7A7B76",
"g. c #757779",
"h. c #767A7A",
"j. c #7B7E7B",
"k. c #86601A",
"l. c #7C827C",
"z. c #81827D",
"x. c #838682",
"c. c #868986",
"v. c #888B85",
"b. c #868A88",
"n. c #888C8C",
"m. c #8C9189",
"M. c #91918D",
"N. c #928F92",
"B. c #949593",
"V. c #989C96",
"C. c #999B9A",
"Z. c #9EA29D",
/* pixels */
"f.N.j.s.u.8.e.j.=.:.z.8.*.l.w.4.[ d.w.d.:.i.=.=.e.0.>.s.j.9.c.{ ",
"c.l.d.&.} X.0.q.u.&.=.#.4 B A 3 > a ^ | =.l.p.>.j.:.g.f.4.j.v.>.",
"4.t.w.w.c.t.=.} =.~ t 9 e 9 v X r y w r v /  .p.B.&.q.7.h.B.d.f.",
"[ >.} w.f.y.%.6 u t u r X . v , o u y y 9 t b 1.1.%.b.M.e.0.0.8.",
"l.x.e.s.%.[ 8 u y r u v r r i < 1 d u u r y y w 9 u O.4.X.j.C.x.",
"h.4.y.d.;.1 e y v y u u z d x < 1 i j H b j v b b t t / :.l.t.l.",
"=.t.w./ e t y y y y f g J j x < 4 k f H l L u f r j u . C 3.} 3.",
"$. .A q u y v y j j H z k y H > 4 x z f l U j T u z M y u u &.w.",
"x.r.g y u v j j j j z j j k h < < x z u V L z R g H Z u v e 6.z.",
"s.4.a u j r T z g j L j z ` x < > c J u V z Z T t J c i b d <.t.",
"s.-.e e z b T L f j P i T z h 1 1 k J G ( x z Q u K Z y G 0 ,.d.",
"7.| # > a * = = = = ; - _ z d - g j J z - = = - $ ; - > ; = >.9.",
"V.-.  & z m * - - : - - z c e $ H z z g > * = * * * 3 _ & 6 l.z.",
"q.@.e y U ) U k P c f u P z i * F h ( J c H t J c K u W f z t.t.",
"e.o.e y P V L k U l P k P z H p l H ( H l z u J z z . ] z k u.d.",
":.O.e r E l g f P j U j U z x 1 z z z J z h j J z H r ] z C 0.3.",
"9.D e u I ( g d I v J j G a g o F z E H ( U j J V K Z ' f Z B.n.",
"Z.5.e u L ! d j U k J k L t F o p z ' h ( U i J v z ( ] g z h.s.",
"t.#.u u I ( j k U j H z F z x > < k ] H ` U j Y j g ( ] k _ e.t.",
"d.-.e u c ` L k U z x z g z H > 1 x I z z P z U a J z ' d L y.3.",
"q...a t I ) L k I L H z G b J < < x 1 l U x j J j U V ' r z 7.%.",
"*.| e u U Z L l P ` h f M = H 4 1 f + b E z j H z P V ' r z j.c.",
"Z.2.w u L z P z L ( H j < < p p 1 y 4 2 J H u g j L b E t ! d.w.",
"s.~ w y L z U z c b F z C 1 F 1 1 s 5 1 E h k K u H l z u j f.a.",
"t.o.e y J L I z L z H z E j K < 1 x z x c U b Q G L u b z j j.*.",
":.D u u J ( h f L z H ) I j H * 1 H z U j L v E ( P i u f z B.j.",
"e.3 e u P c h h x j H ` U c f $ 1 H z x z x f k.c U z c z h f.d.",
"q.n , b l 4 1 < 2 > m C I L j = g j j g 1 < * 4 2 4 1 N = 1 h.t.",
"3.7 # > ; $ @ $ $ $ = ; ! c j = g u u l = + $ = $ $ ; 5 O % h.d.",
"t.+.r M U l m z z j K z Z a d = h j a j j y u E z g b V o M t.3.",
"3.S e j P l U z z g J C j z l = L l z u L u j U j H j j h L i.8.",
"g.S t y T j U z g j T Z z z j + s f b l U z l U u J z z l z z.m.",
"l.O.t u E z P z z l E z L j j + < x u l I L z Y j P j z k L y.t."
};
