/* XPM */
static char *exit1659273078[] = {
/* columns rows colors chars-per-pixel */
"32 32 44 1 ",
"  c #62615F",
". c #666665",
"X c #696764",
"o c #6B6A66",
"O c #676769",
"+ c #6B6B6C",
"@ c #716E69",
"# c #74716C",
"$ c #6D6E72",
"% c #6E7174",
"& c #6F767C",
"* c #717275",
"= c #71767B",
"- c #73797E",
"; c #757C82",
": c #787F85",
"> c #798086",
", c #868581",
"< c #898683",
"1 c #8C8986",
"2 c #868A8E",
"3 c #8D8C8C",
"4 c #908D8D",
"5 c #91918F",
"6 c #868B91",
"7 c #8A8E92",
"8 c #918F90",
"9 c #8D9195",
"0 c #8E9399",
"q c #949393",
"w c #989795",
"e c #969897",
"r c #999896",
"t c #939699",
"y c #999798",
"u c #969A9C",
"i c #9C9C9C",
"p c #A09F9D",
"a c #9EA09F",
"s c #A1A09E",
"d c #9C9EA1",
"f c #A19FA0",
"g c #9EA1A2",
"h c #A2A3A3",
/* pixels */
"&&&&&=&;=;=;;::::;;;;;;;&&=;;;;;",
"22626666626677990976776622622222",
"77777q0t772777tqt797777666762222",
"qqttytttuyytuuddfdddyyytttytq887",
"iipiffifppfpshhhhhffpppiyyyytqyy",
"ppppfipiyyyiissaffpppywwwqqqqqwy",
"334848448qqqqqqqy888888483334488",
"OO++$+$++++$@+oo$+$++++OO. .+O++",
"$***%*=****#%%%*%%%%$++%$O$$$+%*",
"27779099979999779900979966277229",
"9ttttut0900t0099ttd0utuut9999999",
"tuuuuuauuuugggaadggggggaddduiuut",
"quiuiaiaaahhhhghdahhhggaaauiuiet",
"35qqqerwwereriareewerer55qq5qq53",
"<11115311113133331113111,<31111<",
"XXXXXXXXXXoo@ooooXXXXXXX XoXXXoX",
"-==*%%&%$$%%*=**%%%%%%%$%%**=---",
"09777677>2267762667277996666770q",
"tt079977997362226369799t77767q0t",
"ddiuyuyyttttq97qtttuuytytuttyuiu",
"hhhpfpiiyyyytqqrisfhphfffpppfhhh",
"hppppyyrewrrwqrryiiipppiyyypifhh",
"qq88883342333895434q4q88q888q8q8",
"*++@$+OO+..XO+oO+++++@$+$@$$@+++",
"***%$+$$++%%%+#%+%*%**=***%$$$%*",
"779676776227927779990qt997999979",
"uuddduuu999900999000tu0079ttt099",
"ddddggddaaueuuuteeuuuaauuudiggdi",
"gsgsgggisaaaaarrteuaiagaaahhhhhh",
"rrrryurq5w5555544555wwwwwwrrurii",
"111<1<1<1111<11,,111111111131114",
"##o@#### o@oo@# oo@@@@@@@@######"
};
