/* XPM */
static char *floor1659707030[] = {
/* columns rows colors chars-per-pixel */
"64 64 47 1 ",
"  c #2D0E01",
". c #361303",
"X c #3B1504",
"o c #3F1806",
"O c #421702",
"+ c #441904",
"@ c #4B1C05",
"# c #4B1E08",
"$ c #531E05",
"% c #591F03",
"& c #501F08",
"* c #562005",
"= c #5B2205",
"- c #542108",
"; c #5C2409",
": c #632505",
"> c #6A2704",
", c #6C2905",
"< c #642709",
"1 c #692708",
"2 c #66290C",
"3 c #6B290A",
"4 c #732B05",
"5 c #7B2E05",
"6 c #742C09",
"7 c #7B2E09",
"8 c #7E3004",
"9 c #7D300B",
"0 c #812F06",
"q c #812F08",
"w c #833205",
"e c #8D3306",
"r c #8F3806",
"t c #84320A",
"y c #8D350A",
"u c #8F380C",
"i c #913506",
"p c #953906",
"a c #9B3C06",
"s c #91370B",
"d c #94390B",
"f c #9A3B0A",
"g c #A23E05",
"h c #A13F09",
"j c #A54106",
"k c #A44009",
"l c #AA4308",
/* pixels */
"$4q6y-*y>dw7uysauu6+tyfdu9suuuu6-ufs6tsssst7sy&4sfsiysyhiy&%<@<%",
"7yutd-*95dy9uesdus6+yyddutduuuu2-usu3yssysy7sq%>sfysysyhey&7ttds",
"yyyyd&-,rurwuedrus3+stdft9suuuu6#uuu1tsyyye7s7;%dfyysyigys@1ysds",
"yssyd&#1dyywyeddys7+yyddt9uyudu9#uuu1yqysye6s71$fdysiepgys@1dddy",
"sudsp*o4dydtyydyyst+syssutuuuuu2Oy6y6e1tyyy<sq1$dfyyyyigys@<sfds",
"ysddd; 7dyytyepyust#yyssuttuuuu2@y<y:e3qy6y+<,$%sdyeyyagyd&1dddy",
"tsddf; tdysyyydryst+tysst9uttfu2.%+@@%$&@@O++@O;dssqyyfays&<sfds",
"tdddd<.tsryyeyreyyt+qsyyu9uuuuu2+q7=y6qy<y%ysq7%fisqyydgys&;sffy",
"wddfd2Xtsyyyeeyeqsq$qssyu9utddu3+sy2stesqi1yy60%dysqsspays&<sdfs",
"tddfd2Xtrsyeeeyeeyq-qsyyutuuduu6@yy6sqqssy6yy60$dyy0seppys&2ddfs",
"tdufd9Xtyeryeeiwyyq%yyyyutuufuu6+ssysiqdystyie0$sstqsypfys&2sdas",
"9pufd9ots5rqeeitysy=syyyutudfuu6@siyss7ssssyiie+ssqqsyisys%2sdhy",
"4rdaftots0yeeeeqeeq-yyyyutuufuu6+seyssqedsyssse@ysqqeefsys;1ddgs",
"8edadt+9sqiqeeeeeey-yyyyutuudud7@sesssqedsssssq$ysqqiyfyys;3ddhq",
"9edffy+qiqeeeeeteyy%eyyyutuddyu6&ssssdyedsesyse%dstqdydsys;6ddhq",
"9wdhftXqd4eyeeeyyyy<tysyuuyffyu7-sessdssdsetyse@sst0ieddys;6ffft",
"98dfhyX9d7edieyyeyy<qyyyyyuhsuu9%syssdyydistyde$dsqqseidys<3shsy",
"w,ffhuo9d5idyyyyeey:qseyuyuhyuu9;syssdyqdesyddw&ssytdeidyd13dhst",
"94dfkdo6dqfsysysiys<qyeeuushsus9-sstsdyqdiytsdr%syt0iesiyd,2dast",
"5>dkjuo6sysyyeeyiys%tyieyuffusst-yssddstdeutdde%syy0iyisyf>3ddss",
"34dlayo9dyssuy7syyy$qsyyuufduuut%udtqdsydiiqddy&sst5syeeud32ddyd",
"19hkdyo9yqiqys6uyyy$qsiyuufduuut<us9qdssiiyeddp%usy0ssesuf,3dsyy",
":rkfftX9y7u6qt;7t69#yyeyuufuuud9<dd66ffdsiyqdsg%tsywsyeyyd33dsyy",
"8rhff9.&&#&###@&&#++syeyuufduuu9%dd6qdadssytdsg>tsy0ysiiyd33syye",
"ruhdd6:9*w<623t62t1Osyyyuudddtd6;dd37dhassytdyg<tyyeyiieyd>2dsu6",
"yuhdf44d9f7ttwdu9de@uuyyuudsuts6:dd31dfhsdetssg$tyytyieiyf>2ddy>",
"ssfpd65sqs7qyyyyyyi%utyyuudduus6:dd7<dfasdttsdh&tsyyyyeiyf>3ds7q",
"dsddd78isyyuysysyse%sytyuddduyy3,dd7%sfgsdtysff&tyyyyyeeyf><ds5i",
"ssssd60dypysyysyys0$iyuuuudddqt32dut$sdgddtysfi@tsyyyyiita><dy,s",
"uussd65seayyyyyysd4%dystusdudtt2<dss$tfgddtysfy@tsyyyyiyuf>3dq:s",
"usysf65syaeysysyyf:%dyy6ussudts6<dss&qfhddtsddt+yyyieyyeyf>2d7:s",
"syusd64ssaysyyy,tf%>fys6uuusdty7>dyd$7hhsdysddeOeyyyeyyyyf:1dq4s",
"syysf34diayyyuy3se%5sye6uusss7t9%dus;qfhssuusseOeyyeyyiyya=<se5s",
"yyssd34dsayyyuy6i0%0dyy6dyssd6y9:dyd<yhhssuusse@yyyiyyiyyp%2se5u",
"yssyd14draysest3f515ise6dusss3s9=dys<yhgusysdsw+yyyyeyrtyp$<sy7s",
"yyssd16siayyysy>f46qdse7sytsy6y9%fyd1slhddysps9+eyyeyyeyyd$3se5y",
"sssyd<4dsayresy3f4q,ysy6dstsy,s3&fyu1yhhssyyduw+yyywyyyqyf%6sw5s",
"ysdyd34diayeyyy3d5y>636<tt2t31q%<fyu3sgfiysydr8$yyteyyrqyf$,se5s",
"sypyd34sdayyyyy3d5d<$<$%###&#&-+:hyu7sfiiedsrs94yyesyyetya%3sy7s",
"yspsd>5dppyeysy3p4s:qsts&7y969t;1hystsfdresyps8wiy0reyywya*4syqy",
"syayd34dppyessy4i5d<7sqd3qs9t9d%>aysyssfqeyydd6wss5eystqya=6dyyy",
"sypyd<4dpsyyysq6i7d<7dsd67yttyf&4fyuyssf7qsspd6wiyqpysyqyh%3seey",
"yyiid:5idyteyd76dtf<7iis77utyud%7ftsysifqqsspd4edy0iyitqyl:4syty",
"yypsd:5pdyyess77dwd47ies77ututd&7fyuyisd0eispd7isy5iyeeeql,6yeyy",
"yypii<4fsyyyyd9tyys57ses76stses&5duuuyydeqiidd6isy4iyeyyyl47iyye",
"eypdd34idyyyyyytsyd07sys66syyyd&wfuusesfq7isdd6rss50seiyql46seyy",
"syadf=,ddyyysssysyf67sey3yyysys;0ddssesd04fsid6eseq5syiyyl:7yee4",
"yefdi=5ddyyysyssyys76ssy3yyqsys;5dussysde:issd3esys,eyyyyg%qyes,",
"yeads>0idyyyyruusys67ssy3ts7syd<6fyssidsi=dsed,wyqd<6eyyyh$qyey>",
"qyass,0sfysyydduyed:7syu6yd7sys26fyssidsp=sses>eyqh%>fetfa@eyye>",
"tyass>5sdyasyddyyif=7ssd2td7syu26dissedsa,eded==3%<OX%$%%%+yees0",
"eeass14d0sp7yddysid:7syd1tdqsss;4fsssedsf47fss;@%3%13%3<<%+yeeee",
"tepyi:,i5ip4usaused>9uuf6tftueu25fyssissf>4fss>eys7ed5sss7@uqete",
"tyred:4d5yr,sydyyyf49dfd3tftyiu;5iyysissf51fud<5syyyi,yys6+tyeiq",
"eyrys15i4yr>dydyuyd37udd3ydttds;6fyysedsde1dys>wsyyyf4qis6+tyep5",
"yeees:5d4pw<dufrudd<7ddd3edytud<>dyyeiddii>dud;0syytf4qpi6+qeee,",
"eyeyd%,d,yw<dyfuyyd:6ddf6tdutdu2>dstsedidi,dss<0syrtd5wpp6@tei0>",
"yyyed%:f4ew<dufds0d:6ddf6tfutuu2>diqqisdsf>ssu=qsyyyf4tia7@yyi45",
"qeyyi3:d6dw>dyhduqi>6udd66fuyud2:diq0eisdd5tss&5syyyp6yip7@qep>w",
"yyqys3:d7f8>dyffuid,7ddd76suuuu2$idyeisssd4ess&4dyrye6yipq&yee,y",
"teqts<%d7p5,dydfsyt:9sds96fuuuu2:dde5eissd4qsd*>dfys07yidt$wsw4i",
"eyqqd<;d6y87dyfhyy6%9sdst3fuuyu2:dis4iiysd47sd*>dasy0yypp7@qse4r",
"usttd-*d4r86dedhyy6&9yfst3fuuuu3%sds6esssd57sd%>dfyeqyyppt@7p0:d",
"32&--X*d,d86uerhyy6#tydsu7fyuuu3;shi6esysd77ss$4ddsieyyadt@3w6%7"
};
