/* XPM */
static char *floor1659273131[] = {
/* columns rows colors chars-per-pixel */
"32 32 42 1 ",
"  c #651C00",
". c #6A1E00",
"X c #721800",
"o c #672200",
"O c #6D2300",
"+ c #732500",
"@ c #7A2500",
"# c #752902",
"$ c #7C2C02",
"% c #772D09",
"& c #7B2E09",
"* c #7F3005",
"= c #75310A",
"- c #7E330B",
"; c #7D3811",
": c #832600",
"> c #822D03",
", c #8A2E06",
"< c #832E08",
"1 c #8A2F09",
"2 c #853205",
"3 c #8B3305",
"4 c #84330A",
"5 c #8B350B",
"6 c #86390D",
"7 c #8C390D",
"8 c #913505",
"9 c #91350C",
"0 c #933A0D",
"q c #853611",
"w c #8C3611",
"e c #863912",
"r c #8C3B12",
"t c #8D3E19",
"y c #933711",
"u c #923C12",
"i c #9A3D15",
"p c #913F19",
"a c #9C3E18",
"s c #8F4017",
"d c #944115",
"f c #90411A",
/* pixels */
">6#Or230rX4d35f&=;4ee;-#rr7t4O2$",
"4r#or288rO4d38f%%;qee--Ot77peO77",
"7p+ r888r+<p,8s%o#@%%#O.5wwr6Oru",
"7d# 78887+2u38t% O@@#O#.551u-O70",
"3d&Or333q#<039p&O-45<4-$597u6+70",
"2p-Or233w$4788t$%ewyr46218576+70",
"2u-O5333w&1780r-#677556@1,377#00",
"2d-Or383q&q780t4#69yrr6$98386#00",
">d6 6730r#q48iu&$3i157r@81857$70",
":deOt733t#e200u4$4y8777$,9857$30",
">deOr323q#q380r4*490037299916$79",
"30- @@@@#.q300u4-23yu2r2,99,6$55",
"8d4O$@$>%.q500u$*2,iu5t2,9w56$43",
"0dr&t707e%w5007<*6:iu4r>,5u56*52",
"836=p733t%e4800$$7@au5t@,9yq6#41",
"886=u772-Oq4009$$5@au7r@,1u46#41",
"87$*d6322@r-te4&47:iu76@305w4O71",
"67>278622$w2etq-27:i076@,9556+51",
"7d22d8324$4#%%%X>5,d076@38554+45",
"2d22d7322$:$###X*08i86625,156@55",
"3d2200323$24&qq%279i,76291746$47",
"76$>073252,t<et@478y:76295w56247",
"77:>055372<r&1w#4780,77471w3e415",
"77:2070003:p:qp$47y0:s625,74t411",
"3r>20u0754455qq<$r9042s#9:@44#w@",
"4u2>53573,241qw<$u99326@XXX@#Ou5",
"3r>$33507,4755w&$u9y34r#u1<<@.w5",
"4r$>425u0>171qt$$r5u546#yy5w-ow1",
"46$$2$4u0>4745t$$75y44r#514r-Or>",
"6r$$32407@2r4rf$$71y54e#py4e6Ow>",
"66@$623d7#,r4wd@$51y5*q#5114-+w<",
"$%O#222r4@2r&rf$&5,05*4Xywwtq.4@"
};
