/* XPM */
static char *floor1659103382[] = {
/* columns rows colors chars-per-pixel */
"64 64 40 1 ",
"  c #3A1403",
". c #411703",
"X c #451A06",
"o c #4C1C05",
"O c #4F1F09",
"+ c #521E05",
"@ c #562006",
"# c #5C2206",
"$ c #552108",
"% c #5C2409",
"& c #642506",
"* c #692705",
"= c #6C2906",
"- c #632608",
"; c #682708",
": c #66280A",
"> c #6C2A0A",
", c #742B05",
"< c #7B2E05",
"1 c #742C09",
"2 c #7A2E0A",
"3 c #7E3005",
"4 c #7D310B",
"5 c #802F09",
"6 c #833206",
"7 c #8D3406",
"8 c #8F3807",
"9 c #84320A",
"0 c #8D350B",
"q c #8F380C",
"w c #913507",
"e c #943907",
"r c #9C3C06",
"t c #91360A",
"y c #93390B",
"u c #9A3C09",
"i c #A13F06",
"p c #A13F09",
"a c #A34008",
"s c #A84308",
/* pixels */
"@,510$%9,q64t7tuqq1X9tyyy5yqqqq4$qqq49qqtt5509%2tutt0t0ew0+--+:-",
"40000%%13t79q0tuqt1O00yyq9yqqqq>$qqq>qqqt005t5#>tytttttuw0$155q0",
"0000q@$17q89q0tttt1O09tuq5qqqqq>$qqq>9qq0t95t2-#yyttttwit9+>qtyq",
"qttt0$O;qq89q7yttt1O00qyq9qqqqq>Oqqq1050ttt202;+ty0twweit0+1tyyq",
"qqyyt%X>tqq900etqq5O0ttt99q9qqq:O55010>0t9t;75&#tut0t0eiqqO>tuyt",
"0qyyt- 1tqt07wuqqq5O9tttq9qqqqq>O5;5-5>5959o;*+#tut00teitq+>0yyq",
"0qyyt% 2tqt007t80t5O5tt099q9qqq>.$O$O%$$o+ooooo&ttt50tyut0+>tuyt",
"0qyyt-.9qtw000t9005O50t0q9qqqqq>X51;5555;5#902,&ttt500yi00+-tuut",
"9yuyq:X40tq07700005%50t0q9qqqqq>O09;050t50;t015#t0t5ttur00$:qyuy",
"9yyuq>X90t7077w6055%5000q9qqyqq1+005t05wtt2t025@0tt5ttwr00%:qyuq",
"9yyuy1X5007777w6tt5%0000q9qquqq1o000tt5t0t5tw05+0075ttwy00%:0uuy",
"5yyuy4X4w6797780tt5-0000q9qquqq1O0tttt5ttt0tww7+0095ttut00%>tyut",
"2wyuy9O4w5777775050%0000q9qquqq1+0wttt5wtttttt7+90057tttq0->typy",
"57yry9O4t5w97777005-0000qqqqyqq5O00ttt50tttttt5#0t95ttytq0->yyu0",
"97ypu9o5t5777779000%0000qqqqyqq1$0tttytttttt0t0#tt95t7yt00-1yuu9",
"99yuu5X2t5707700000;500qqqqyyqq4%0ttttttytw00t0+0t57ttytq0-10uu0",
"93yau0X4t20tw700w00-50w0qqqpyqq5%0tytytttwt90t7+0t95t7wytt;>tuut",
"9,yuuqX4t2ew000t7tt;5t70qqqaqqq5-0tqyt09ywt0yw7%0t97t7twtt1>tut9",
"3,eupqX4t7yttt0tt00-50w9qqyayqq5$0t0yy05u0t0yq7&0t99t7twtt>>tuy0",
"2=yaaqX1t7yt009ttt0#500tqqyuqqq9$0y0yyt0twt9yq7-0t05ttwttt=>ttqt",
"11ysu0X4q0yt004qtq0%50t0qquyqqq9-0y59yt0twt9yyw+0t95tt7tqy>>tyqt",
">9uay9X4q9t50q10009+5qw0qquyqqq9:0q55yyyywt9tty-9005wt7tqq1>yy0t",
"*8puy4X4949154:2412+9070qqyyqqq4:yq55tuyt7t9tti&0q07tt70tt11qq00",
"3qpuu4XO$$$$OOO$$Ooo00t0qquyqqq4-qq25yrutwt9tti*9q050twttt>1tq07",
"qtuuy2-1:2;1>>41>5;oqq0qqqyyq0q4-qq12ypuytt9ttp;5tt9007w0q>1tqt2",
"qquuy1,02y2999q05q7+9q9qqquyq0q>;tq1>tuuyy00ytp-90t500wtty,>qq9=",
"qquee2209w9900t0007+9q0qqqyyqqq1;tt4;yuiyy99yyu+5tt0007wty>>tt57",
"yyuyt26ww0000t0ttw7&9000qyyyq0q>,qq5#typyq00yyy%5t000twt0y=>tt27",
"qyttt55wte000yt00t6+ww00qyuyy09>>qq5#typyy90tuw+900000wtqy=>00>t",
"qqquq25t0uqw00tt0t<+t0q0qyyyq99>>qq0+tupuy9qty0+900007w00e,>t9*0",
"tqqtt25twrq000t90y*&t0q4qqyqy091>t0t+5upyt0tyy9+50tt00000e*>t5>7",
"yqqtt1,ttr0q0q010t#=ey01qqqqy001>ttt%2pput0yyy0o5t0t70t00e;>t5,0",
"0t0yy1,0wut0tq01w7#,w071yqyt0254-t0q-5upyy0qyt7o507000w00e&;0730",
"00qyy1,ytr0t0q91w5*5t002yqqyt204;ttq;0ppytqqyt6+700w70e008%:009t",
"0w0yy>,ytr000t01w<=2tt05qqt0t105&ttq>0ppyt0yyt9+700000090e#>07<0",
"0tytt>,ttrt00t91w,25tt52yq0tt102#wtq>tppyy00et4O900700700w@>00<0",
"tty0y;10er000t91t<7=0002tq9q0>0>%yq0>0putttqeq3@9w0600790e#100<0",
"0yyyy><qer000001t57;121;54:4>>2%-yqq1tpye0y0eq4#900000790t#>07<0",
"tttyy><0tr0wt001w50-$%%%O$$$O$%O;y0q5tpte7tt8q4,t70w00790e#10790",
"y0eyt=<0uu070q9,w20;5050%192124%>uqq0yyy87tteq46t05w00790u-10760",
"q0eyq><0eywwt091720;900015q9599-=ytt0tty90tttt36w0570t790r#,t070",
"t0ett>,wyt070t91w9q;20ww>40590q-,uttttty59wteu26t76e0w950r-1q000",
"00wty;<wyt07tq92w9y;2tw024q9q0q%5yq0ttwy59tttt,7w05y0w050r*,0700",
"00ey0;<et0000t29q0y12tw05400qq0$5y0qtywy50wtut47t02w0wt90p,20090",
"00rt0;,eyt07qq4900t<2twq4109000$5yqqqtty77ttyy5w002w00w00p<20000",
"00ety>,ty0000q000tt55tt012q00t0%5yqqqtyy65tyyy20t0<6ww000a,20777",
"00ue0;,tyt00tqqq0tt52070>000tt0-5ytqqwty6,twtt270772w0w00p*50072",
"00re0;<tyqq0tqqqttt220t01005t00:6wtyqttt7*ywtt,7000>6000qr-5777=",
"70ue0>5wyyqqqqqqttt,2t001905qtt:2ytttwyy7&ttww,7700;277ttu&9770>",
"79ue7,6we0t00ttq0tt;4ttq10q5q0t>1ytytwyyw;ty07*699t&;w59te+577w=",
"70ue0=<0ytu0qteqtwt;2q0q>0y5q0q:2ytytwyyy,9uww-#;:-oo++%-#o77775",
"90uw01,09wu40teqtwt=2qqy>9y5q00:<ytttwyyu,5yt0;+-,+;>#1>:%o59777",
"90e00=,060e2ytuq0wt>4yyy19y0q00:<ytytwtyy,<yyt>55t27w29t72O709t7",
"70w00>1t<7810teqttt,5yyq10y90t0:,wtttwtyy<>yq0;90000y=7771O977w5",
"97w00><w<78=0teqqtq14quy>0q90q0-1qt0twtyy7=yy0*6t000y,5w01o977w<",
"07w07*<w,76;yquqqqq>4yyq10y09qq>>tttwwyyyw,yy0;60070e<7t01o9577,",
"70w07#,7276>q0uyt0q:2tuq4qyq9qq:=tt0twtyyw,wt0:5q700t39ew1+97w6=",
"97000-*0296,qquyt50;2quy49yqqqq>=ty55wytyy,0q0&50000e,0we2+59y<2",
"07790*&0406>qquyq7w=2qyq14qqqqq:&tw95wwyyy2ttq%<t070t30te2+77w=7",
"9000w>;q9e3=y0py0wt=2qyy41qqqqq:+twt6wwtyt<9qq%>wt0q920ty9$977=7",
"09990;-q2e<10wuu0t5;4qyy41yyqqq:-tt05wwwyy,9t0-=tuq0957we4+677,7",
"70990:-0<03<q0yuq01-4qyq91yyqqq:-ttt57wtyy,5w0#*tuw0900we4+90717",
"90999%#q,q4200ya00>%4qyyq1uqqq01-wut17tttt22t0%,ye00797ey9+206*0",
"1>$%% #0,t92t7ya001O5qyqq5yqq00>%tut27tttt5900%,tu0e000rw9+=91#2"
};
