/* XPM */
static char *lock1659447313[] = {
/* columns rows colors chars-per-pixel */
"32 32 182 2 ",
"   c None",
".  c black",
"X  c #0A0901",
"o  c #1A1703",
"O  c #270E00",
"+  c #281000",
"@  c #291000",
"#  c #2A1100",
"$  c #2A1200",
"%  c #2B1300",
"&  c #2C1400",
"*  c #2D1500",
"=  c #2E1600",
"-  c #2E1700",
";  c #2D1604",
":  c #2C1507",
">  c #2F1800",
",  c #2F1804",
"<  c #2A1308",
"1  c #2E1808",
"2  c #301801",
"3  c #301901",
"4  c #301902",
"5  c #311A02",
"6  c #311A03",
"7  c #301904",
"8  c #311A04",
"9  c #311B04",
"0  c #321B04",
"q  c #321B05",
"w  c #311B07",
"e  c #321C05",
"r  c #331D06",
"t  c #331D07",
"y  c #341D06",
"u  c #341D07",
"i  c #351F06",
"p  c #301908",
"a  c #301A09",
"s  c #311B09",
"d  c #321C08",
"f  c #341E08",
"g  c #341E09",
"h  c #351F09",
"j  c #351F0A",
"k  c #341E0B",
"l  c #282405",
"z  c #352009",
"x  c #362009",
"c  c #372109",
"v  c #35200A",
"b  c #36200A",
"n  c #36200B",
"m  c #36210B",
"M  c #36210D",
"N  c #38220D",
"B  c #39240F",
"V  c #3A2511",
"C  c #3A2611",
"Z  c #3B2612",
"A  c #3C2815",
"S  c #3D2A16",
"D  c #39251A",
"F  c #3F2B18",
"G  c #46320B",
"H  c #49350B",
"J  c #513D05",
"K  c #402D19",
"L  c #412E1B",
"P  c #412E1C",
"I  c #412F1C",
"U  c #43311E",
"Y  c #44321F",
"T  c #443222",
"R  c #463523",
"E  c #473524",
"W  c #483725",
"Q  c #493827",
"!  c #473629",
"~  c #493828",
"^  c #4C3C2B",
"/  c #4B3B2D",
"(  c #4D3D2D",
")  c #4D3E2E",
"_  c #4F3F30",
"`  c #6F5E10",
"'  c #756B11",
"]  c #7E6F13",
"[  c #504132",
"{  c #514233",
"}  c #524333",
"|  c #524334",
" . c #524335",
".. c #534537",
"X. c #554739",
"o. c #55483A",
"O. c #574A3D",
"+. c #665833",
"@. c #7E712A",
"#. c #766A30",
"$. c #594C40",
"%. c #5A4E41",
"&. c #5B4F42",
"*. c #5C4F43",
"=. c #5C5043",
"-. c #5C5046",
";. c #5F5449",
":. c #605449",
">. c #60554A",
",. c #61564B",
"<. c #62584D",
"1. c #63584E",
"2. c #63594E",
"3. c #625850",
"4. c #645A50",
"5. c #655C52",
"6. c #665C52",
"7. c #665C53",
"8. c #665D53",
"9. c #655B54",
"0. c #675D54",
"q. c #696057",
"w. c #696157",
"e. c #6A6159",
"r. c #6B635B",
"t. c #6C645B",
"y. c #6C645C",
"u. c #6D655D",
"i. c #6D655E",
"p. c #6D665E",
"a. c #6E665E",
"s. c #6E665F",
"d. c #686060",
"f. c #6F6760",
"g. c #6F6860",
"h. c #706962",
"j. c #716A63",
"k. c #716A64",
"l. c #716B64",
"z. c #726B64",
"x. c #726B65",
"c. c #736D66",
"v. c #736D67",
"b. c #76706B",
"n. c #77716C",
"m. c #78736E",
"M. c #79746F",
"N. c #797471",
"B. c #7A7570",
"V. c #7A7671",
"C. c #7B7772",
"Z. c #7C7872",
"A. c #7C7873",
"S. c #82720E",
"D. c #817213",
"F. c #837410",
"G. c #857614",
"H. c #827812",
"J. c #877C14",
"K. c #8A7A14",
"L. c #8E8014",
"P. c #8D801B",
"I. c #928415",
"U. c #968A16",
"Y. c #978A16",
"T. c #9B8D11",
"R. c #9B8F16",
"E. c #91841D",
"W. c #91841F",
"Q. c #A09313",
"!. c #A19313",
"~. c #A09315",
"^. c #A69913",
"/. c #A89A17",
"(. c #A29518",
"). c #A89A19",
"_. c #958927",
"`. c #9A8F26",
"'. c #9F9421",
"]. c #9B912D",
"[. c #908639",
"{. c #8C8B8B",
/* pixels */
"                                                                ",
"                                                                ",
"                                                                ",
"                                                                ",
"                                                                ",
"  M.m.M.M q m f f N f f f f m f f c j f N f f f f m q M V.m.V.  ",
"z...V %.,.q q f f f f f m f m f j f f c f f c f f q q ,.*.V ..z.",
"V.A # ,.Z.z.( q j c f c f f f f f N f f f f f N q ( z.Z.:.# A V.",
"%.y.e.n.P ~ v.m 6 f f f f m f s s f m u f f f 6 m v.~ U b.e.t.%.",
"> V 8.8.% V h.U K u u f f q f H H f q m m q f L P h.Z # 8.8.B 6 ",
"m 6 m y.y.v.Z.a.y.t.K y s G D.` ` D.G s u K t.y.y.Z.v.y.y.m 6 m ",
"f m u N U X.h.B 6 _ y., u ] G : : G ] u 6 t.( 6 V h.o.U N r m u ",
"m r m f = L z.V 6 W Z.d.#.J < m f < J #.d.Z.~ 6 V h.L = m f f m ",
"m f f f f q [ h.y.m.[ D @.+.f c c q +.@.D [ M.y.h.[ q N f f f f ",
"f f f f f m 6 N W z., @ F.'.L.I.I.L.'.F.O , z.W N 6 f f f f m f ",
"f m m f f f j u 6 6.1./ E.!.(.R.R.(.~.E./ 1.6.6 u c f f c f m f ",
"f f j f m f f f f f  .3.E.~.Y.o o Y.~.E.3. .f r f f m f f f c f ",
"f N f c f f m f M f = f P./.' . . ' ).P.k > M m f f f f m f c f ",
"c f f f f c u f q q 6 9.].T.).l l ).T.].9.> > r M f m m f f f j ",
"f j f N f f m 6 T 0.t.V._.~.J.X X J.!._.V.t.e.T 6 f f f c f N f ",
"N f f f f f 6 L h.^ L -.`.^.Y.H.H.Y.^.`.-.L ^ g.L 6 f m f f f f ",
"f f c N 6 m q [ w.# @ T [.S.G.K.K.G.S.[.T O # e.[ q c 6 j N c f ",
"m q , = [ v.f.b.m.0.,.h.! ; s ; 1 s = ! g.,.0.n.b.f.x.[ = , y j ",
"= P  .( y.L q *.8.R o.S 6 c f m m f f q F o.R 8.*.q L y.(  .P = ",
",.0.*.0.V.O.( f...% , u m u f m f f r m q 6 #  .y.( O.V.0.*.e.,.",
"y.1.W ,.6.O.1.[ f f f f x u f m m m f u f f m f [ 1.%.3.;.E 1.y.",
"  6.{.y.s # # & f f f m f m f f f f f m m u m f = # # f y.{.1.  ",
"                                                                ",
"                                                                ",
"                                                                ",
"                                                                ",
"                                                                "
};
