/* XPM */
static char *lock1659706079[] = {
/* columns rows colors chars-per-pixel */
"64 64 100 2 ",
"   c None",
".  c #010000",
"X  c #0C0B01",
"o  c #250C00",
"O  c #280F00",
"+  c #2D1502",
"@  c #2F1801",
"#  c #2C1508",
"$  c #2F1809",
"%  c #321B04",
"&  c #351F09",
"*  c #372107",
"=  c #36210A",
"-  c #39230D",
";  c #363208",
":  c #362114",
">  c #3A2611",
",  c #3D2915",
"<  c #3F2B1A",
"1  c #3E2C23",
"2  c #3F2E2A",
"3  c #402B0A",
"4  c #4B3707",
"5  c #46320B",
"6  c #433E0A",
"7  c #402D1A",
"8  c #43311E",
"9  c #463423",
"0  c #483726",
"q  c #493826",
"w  c #4C3C2B",
"e  c #4C3C31",
"r  c #524B0C",
"t  c #5D4A0E",
"y  c #67550C",
"u  c #6B5910",
"i  c #6B620F",
"p  c #7A690F",
"a  c #726112",
"s  c #7F7313",
"d  c #4F4030",
"f  c #524435",
"g  c #554739",
"h  c #57493C",
"j  c #584B3E",
"k  c #6F643E",
"l  c #544846",
"z  c #5A4E41",
"x  c #5D5246",
"c  c #5E5249",
"v  c #605446",
"b  c #60564A",
"n  c #64594D",
"m  c #655C53",
"M  c #685E55",
"N  c #696057",
"B  c #6C645C",
"V  c #6E6763",
"C  c #6F6861",
"Z  c #726B64",
"A  c #746E68",
"S  c #76716B",
"D  c #78736E",
"F  c #7D786D",
"G  c #747073",
"H  c #7B7672",
"J  c #7D7975",
"K  c #797579",
"L  c #7E7B7A",
"P  c #867713",
"I  c #837813",
"U  c #8C7D14",
"Y  c #82731B",
"T  c #897D26",
"R  c #81752C",
"E  c #817E7B",
"W  c #9B8D0E",
"Q  c #9E910F",
"!  c #938516",
"~  c #958915",
"^  c #9B8E16",
"/  c #91841D",
"(  c #9C8F18",
")  c #9E9114",
"_  c #A39509",
"`  c #A19517",
"'  c #A49618",
"]  c #A59919",
"[  c #A99C18",
"{  c #AEA319",
"}  c #8F852F",
"|  c #978B22",
" . c #918631",
".. c #938A36",
"X. c #998F34",
"o. c #8D875B",
"O. c #8A856A",
"+. c #83817E",
"@. c #807E85",
"#. c #858381",
/* pixels */
"                                                                                                                                ",
"                                                                                                                                ",
"                                                                                                                                ",
"                                                                                                                                ",
"                                                                                                                                ",
"                                                                                                                                ",
"                                                                                                                                ",
"                                                                                                                                ",
"                                                                                                                                ",
"                                                                                                                                ",
"                                                                                                                                ",
"  w J H H H J C > % = & & & & & & & = & & & & & & & & & & & & & & = & & & & & & & = & & & = & & & & & & & = % - Z H H H H J w   ",
"  H H 9 , , j #.Z , & & = & & & & & & & & & = & = & & & & & & & & & & & & = & & & & & & & = & & & & & = & & , Z +.j , , 9 D H   ",
"  D 8 @ % & + g +.x + & % & & & & & & & & & & & & & & & & & & * & & & & & & & = & & & & & & & & & & & % & + x +.j + & % @ 8 S   ",
"  Z + = = & > g H A S x , & & & & & & & & & & & & & & & & & & & & & & & & & & & & & & & & & & & & = % , x S A H g - & - - + Z   ",
"  H w + + - S J H S D J H 8 @ & & & & = & & & & & & = & & & & & & = & & & & & & & = & & & & & & & @ 9 H E S S H L A - + @ e H   ",
"  A E f 9 j J H M & > V E b & & & & & & & & & & & & & * & & & & & & & & & & & & & & & & & & & = & & c L B , & m H H z 9 f +.A   ",
"  8 A L #.J H M % % % > Z J > % & & & & & & & & & & & & & & * & & & & & & & & & & & & & & & & = & > J Z - % & & M H H #.E Z 8   ",
"  & % f z S D & % - - + B H > % % % & = & & & & & & & & * & $ $ $ % & = & & & & & & & & = & % % @ > H B + - = & & D S z f % &   ",
"  = & @ + M J x % @ + g H S > < < 7 = + = & & & & & & = # = 5 5 5 5 * # & & & & & & & = + = 7 7 < > D H f + + % c J M + % & &   ",
"  & & & % 8 E J b f z H F S m E J E Z w % & & & & * & $ t ! ] ' ) ] ! t % & & & & & & % d B +.J E n S H H x f n E L 8 % = & &   ",
"  & & & & & h Z +.#.#.J S H H m N m A +.h % & & * = # u [ P 5 3 3 5 P { u $ = & & & @ h +.S m N N H H S H +.+.+.Z g & & & & &   ",
"  & & & & & @ > f w w n J S q + % @ > Z L j % = * # y { t # % $ $ & # t { u # * = % j E Z - + % + q D J n w w f > + & & & & &   ",
"  & & & & & & & + % O f #.f + - = = % < L M + % $ - ~ t # * & & & & & O t ~ * $ % + B J < % = = = + f #.f O % + & = & & & & &   ",
"  & & & & & & & = = % g +.f + - = = % < J Z c M 1 y ~ # & & & & & & & * # ! y 1 M b Z J 7 % - & - + f #.h + - - & & & & & & &   ",
"  & = & & = & & & = % 0 H H q + % + , Z H J +.E F ) 4 $ & & & & & & & = # 4 ` D +.E J D Z > + % + 0 H H 9 % & & & & & & & & &   ",
"  & & & & & & & & & & @ 9 J J m N m Z J S q 8 < n ' k : & & & & & & & & = k ] n < 8 q S J Z m N m J J 0 % & & & & & & & & = &   ",
"  & & & & & & & & & & = + 9 m E E J H S 8 + & @ * W O.l + $ & & $ & $ + l O.W * @ & + 8 S H E J E n 8 % & & & & & & & & & & &   ",
"  & & & & & & & & & & & = % % 7 , 8 H B % = = $ a ` | / U U U U U U U U / | ' a $ & = + B H 8 , 7 & % & & & & & & & & & & & &   ",
"  & & & & = = & & & & & & & & % % - J B % = = $ s ] ^ ) ` ` ( ' ) ' ) ) ) ) ' s $ - & % B J - @ % & & & & & & & & & = & & & &   ",
"  & = & & & & & & & & & & & & & & - C L j + % o p ' ^ ^ ^ ^ ^ ) ( ( ( ^ ( ( ] p o % + z L Z - & & & & & & & & = & & & & & & &   ",
"  & & & & & & & & & & & & & & & & % - Z +.M x c T ` ^ ) ^ ) ` ~ ~ ] ) ^ ( ) ) T c x M +.Z > % & & & & & & & & & & & & & & = &   ",
"  & & & & & & & & & = & & & & & & & % > c B #.@...) ( ( ^ ' r . . r ' ^ ( ( ) ..@.+.B b , % & & & & & & & & & & = & & & & & &   ",
"  = & & & & & & & & & & = & & & & & & & + & q 1 Y ) ( ^ ) ~ X . . X ~ ( ) ( ` Y 1 9 & + & & & & & & & & & & & & & & & & & & =   ",
"  & & & & & & = & & & & & & & & & & & & = & % o p ] ^ ^ [ r . . . . r ] ^ ^ ] p o % & = & & & & & & & & & & & & & & & = & & &   ",
"  & & & & = & & & & & & & & & & & & & & & = + e  .Q ( ~ ' r . . . . r ' ^ ( Q  .e % & & & & & & & & & & = & & & & & & & & & &   ",
"  & & & & & & & * & & & & & & & & & & = = & w K ..Q ) ( ^ ' 6 . . 6 ' ^ ) ( )  .K w & = & & & & & & & & & & & & = & & & & & &   ",
"  & = & & = & & & & & & & & & & & & % + @ + x L } ) ( ) ( ] I . . I ] ~ ( ( ) } L v o % + % & & & & & & & & & & & & & & & = &   ",
"  & & & & & & & = & & & & & & & & % 9 b x j B K  .Q ( ( ) ` ; . . ; ( ^ ) ( Q  .K B z x b 9 % & & & & & & & * & & & & & & & &   ",
"  & & & & & & & & & & & & & & % = N J +.+.#.H G  .) ( ^ [ 6 . . . . r [ ~ ) )  .G J +.+.+.J N & % & & & & & & & & & & = & & &   ",
"  & & & & & & & & & & & = & & - N +.b 8 w 8 n L } _ ( ^ ' s i i i i I ` ^ ( ) } L m 9 0 8 b #.B - & & & & & & & & & & & & & &   ",
"  & & & & = & & & & & & & = + b +.b & + % + & m ..^ ( ~ ^ ` ] ' ] ] ` ~ ^ ( ^ ..m % @ + @ % b +.v @ & & & & & & & & & & = & &   ",
"  = & & & & & & & & & & & = + b +.< @ - = - + 2 X._ ] ] ] ' ` ] ' ' ' ] ] ] _ X.2 @ - = = @ < +.v + & & & & & & & & & & & & &   ",
"  & & & & & & & & % % % % & + x E x @ % % % + c o.R y u u u u u u u u u u y R o.c % % % & @ z +.v + & & % % % & & & & & = & &   ",
"  & & & & & & & & , n Z V B B A D J z , 7 , x +.V : # # # # # # $ # $ # # + : V +.z , 8 , z L D A B B B Z b < & & & & & & & &   ",
"  & & & - & - @ d L L H H H E H D D J L E E L V - % = & * * * - * & * = & = % = B L E L E J D D H E J J H E E e + - = & - & &   ",
"  & & % @ % + & C S c - > , b Z J q q B n N w & & & & & & & & & & & & & & & & & & w B n B q 0 J Z b > > - x S Z & @ + % + & &   ",
"  & & h b b j e +.z o & & = o x #.9 + @ % + % & & & & & & & & & & & & & & & & & & % + @ @ + 9 #.z o & & - o j +.e j b n h & &   ",
"  9 H E E E +.H H M 9 @ @ % 9 M S , & = = = & = & & & & & = & & & & & & & & & & & & = = = & , S B 9 % + % 9 M J S +.E E E H 0   ",
"  S S w 9 9 0 B H J J m m m J #.j + = & & & & & & & & & & & & & & & & & & & & & & & & & & = + z #.J m m m J J S B 0 9 9 w S S   ",
"  E M % + + + z E B Z #.E +.A g = & & & & & & & & & & & & & & & & & & = & & = & & & & & & & & = g Z E E E Z B E z + + + % M L   ",
"  b #.Z B B B +.Z - > 7 7 7 , + & & & & = & & & & & & & & & & = & = & & & & & & & & & & & & & & + , 8 7 7 , - Z +.B B B Z #.b   ",
"  = f A J H H j , % & % % % % = = & & & & & & & = & & & & & & & & & & & & & & & & & = & & & & & = & % % % & % , z H H J A f =   ",
"                                                                                                                                ",
"                                                                                                                                ",
"                                                                                                                                ",
"                                                                                                                                ",
"                                                                                                                                ",
"                                                                                                                                ",
"                                                                                                                                ",
"                                                                                                                                ",
"                                                                                                                                ",
"                                                                                                                                ",
"                                                                                                                                "
};
