/* XPM */
static char *monster21659952978[] = {
/* columns rows colors chars-per-pixel */
"64 64 211 2 ",
"   c None",
".  c #161002",
"X  c #1B1305",
"o  c #1C1609",
"O  c #1E180C",
"+  c #1C1B11",
"@  c #211709",
"#  c #231B0D",
"$  c #201507",
"%  c #241E11",
"&  c #281F11",
"*  c #301D1E",
"=  c #1E2316",
"-  c #262115",
";  c #292316",
":  c #25251B",
">  c #29251A",
",  c #26291F",
"<  c #2C291D",
"1  c #302A1F",
"2  c #1F2B28",
"3  c #1D2A21",
"4  c #1D2C33",
"5  c #1A2E39",
"6  c #1E343A",
"7  c #242622",
"8  c #242A23",
"9  c #2C2B22",
"0  c #24272E",
"q  c #252C2B",
"w  c #2A2D2C",
"e  c #282521",
"r  c #312E23",
"t  c #342422",
"y  c #2C3226",
"u  c #23332B",
"i  c #2C342C",
"p  c #273026",
"a  c #343126",
"s  c #39362C",
"d  c #36362C",
"f  c #2B2D34",
"g  c #252831",
"h  c #223334",
"j  c #2A3233",
"k  c #23343C",
"l  c #29363A",
"z  c #223934",
"x  c #353C32",
"c  c #3B3C35",
"v  c #33373A",
"b  c #3E2B34",
"n  c #443634",
"m  c #36433C",
"M  c #3D453D",
"N  c #26423E",
"B  c #41423B",
"V  c #464339",
"C  c #253A46",
"Z  c #2A3C44",
"A  c #293E4B",
"S  c #253843",
"D  c #353A41",
"F  c #313540",
"G  c #54364E",
"H  c #254643",
"J  c #2A414E",
"K  c #254C4A",
"L  c #274946",
"P  c #3D4B46",
"I  c #354449",
"U  c #39534B",
"Y  c #2B4352",
"T  c #314755",
"R  c #344954",
"E  c #344D5D",
"W  c #314758",
"Q  c #2E5C5A",
"!  c #2A5755",
"~  c #385C57",
"^  c #33615E",
"/  c #3C5365",
"(  c #3D596B",
")  c #375262",
"_  c #346663",
"`  c #396A67",
"'  c #3D7371",
"]  c #464E49",
"[  c #454943",
"{  c #44534D",
"}  c #49524C",
"|  c #5D4A5B",
" . c #455957",
".. c #545955",
"X. c #555D5B",
"o. c #555A57",
"O. c #56534A",
"+. c #4C625E",
"@. c #486156",
"#. c #5A605D",
"$. c #415C6D",
"%. c #445E67",
"&. c #435F70",
"*. c #734E79",
"=. c #47696A",
"-. c #596668",
";. c #546A6B",
":. c #5C6C6E",
">. c #446172",
",. c #4A6C7C",
"<. c #486776",
"1. c #5C6D70",
"2. c #477876",
"3. c #557D75",
"4. c #57757A",
"5. c #53736B",
"6. c #676B66",
"7. c #75736C",
"8. c #637174",
"9. c #68787C",
"0. c #787A74",
"q. c #48827F",
"w. c #56837C",
"e. c #83827B",
"r. c #794D81",
"t. c #4D7385",
"y. c #507585",
"u. c #547D8D",
"i. c #567A84",
"p. c #4C6E81",
"a. c #6E7E81",
"s. c #617E83",
"d. c #80628B",
"f. c #A179B7",
"g. c #A565C0",
"h. c #4C8683",
"j. c #558986",
"k. c #588595",
"l. c #5D8B9B",
"z. c #578392",
"x. c #5B9C99",
"c. c #638285",
"v. c #688186",
"b. c #738285",
"n. c #76868A",
"m. c #798A8F",
"M. c #77898E",
"N. c #648B92",
"B. c #678E96",
"V. c #7D8D92",
"C. c #63929E",
"Z. c #679796",
"A. c #7F9095",
"S. c #67A39D",
"D. c #5F90A1",
"F. c #608EA0",
"G. c #6294A3",
"H. c #669AA9",
"J. c #6A9AA7",
"K. c #69AEAA",
"L. c #67A6A5",
"P. c #6BB2AE",
"I. c #7BA9B3",
"U. c #74ABBA",
"Y. c #7CABB5",
"T. c #72B8B3",
"R. c #6FA9B0",
"E. c #7FB6C4",
"W. c #7AC7C3",
"Q. c #898B86",
"!. c #85969B",
"~. c #87989E",
"^. c #849499",
"/. c #949691",
"(. c #8C9DA2",
"). c #8FA0A6",
"_. c #8EA1A8",
"`. c #90A1A6",
"'. c #92A4AA",
"]. c #9CAAAD",
"[. c #9EAFB3",
"{. c #9FB1B8",
"}. c #A2AEB0",
"|. c #ABBABD",
" X c #A3B4B8",
".X c #B6B8B6",
"XX c #B18DCB",
"oX c #86BDCA",
"OX c #AEBEC2",
"+X c #E0A5FF",
"@X c #AFC0C4",
"#X c #B4C5CA",
"$X c #B9C9CD",
"%X c #B4C2C4",
"&X c #BCCDD0",
"*X c #C0CFD3",
"=X c #C3D1D5",
"-X c #C9D7DA",
";X c #D2D6D6",
":X c #D1DCDE",
">X c #C6CDCD",
",X c #D3DEE1",
"<X c #D4E1E4",
"1X c #DAE5E8",
"2X c #EAEFEF",
"3X c #E0E5E5",
"4X c #E3EFF1",
"5X c #ECF4F7",
"6X c #F4FCFE",
"7X c #FAFFFF",
"8X c #F1F7F7",
/* pixels */
"                                                                                                                                ",
"                                                                                                                                ",
"                                                                                                                                ",
"                                                                                                                                ",
"                                                                                                                                ",
"                                                                                                                                ",
"                                                                                                                                ",
"                                                                      ; ;                                                       ",
"                                                          # 1 #     > ; ;       O                                               ",
"                                                        O 0.|.[ % % ; ; & % o ; ] &                                             ",
"                                                      O e.1X(.M.8.M 9 ; a s o.].1XQ.O                                           ",
"                                                    X 0.8X&X Xm.M.8.] - 8.(. X=X&X4X7.o                                         ",
"                                                  O V 8X,X$X`.a.V.:.] & -.V.n.OX$X<X2Xs #             > ;                       ",
"                                                  O .X8X$X#X'.n.n.8.[ 9 8.!.~.'.#X=X7X/.X             % ;                       ",
"                                                X V 5X&X=X|.(.~.b.:.c r M.(.!.M.[.-X5X3Xa #         - { <                       ",
"                                                . 7.7X*X Xm.n.a.a.:.c s '.(.V.^.#X&X-X6X6.O > >   &  .Z.;                       ",
"                                                . Q.7X<X~.!.(.m.b.:.d B '.(.^.V.`.$X=X6Xe.i 4.% ; g t.4.@                       ",
"                                                . 0.7X*XOXOX`.^.a.:.r B _.!.n.^.OX&X:X7XQ.% s : l E J.{ @                       ",
"                                                X O.4X&X`.(.(.M.a.-.a M V._.~.^.OX-X2X7X6.# q S W F.B.;                         ",
"                                                  < >X-X}.~.(.^.a.-.< [ a.`.^.^.$X*X3X1Xa q 6 k <.N.< %                         ",
"                                                  X 7.4XOXOX(.!.n.-.> } m._.m.`.=X-X8X/.+ 5 4 A I # P  .#                       ",
"                                                    % .X<X@X].(.9.X.; X.'.^.V.#X$X8X;X> v / A A W  .G.i.&                       ",
"                                                    % r -X=X#Xb.c e ; 9 ..m.|.=X<X=Xn 9 $.$.i.u.u.H.D.N.;                       ",
"                                                      # s #X0.% % & } < O < }.6X;XV - E / $.<.l.G.>.u.C.>                       ",
"                                                        % ; % - > ; X.r XX| 9 Q.e . % 2 q I / $.,.( l.J.;                       ",
"                                                          ;   > ; 1 o.- *.r.# . n d.| G t ; / $.>.C.E.X.#                       ",
"                                                                - 9 X.- = = w l e f.+Xf.* j p.G.U.I.] # >                       ",
"                                                                & a #.& q q q w * # b - i y.l.l.c.< % > >                       ",
"                                                                % d ..% < < > ; ; q q l ( t.$.f # e w ;                         ",
"                                                                o c o.% F v D D w % 0 k l w ; > w g ; ;                         ",
"                                                                o n o.% 0 g g f F d ; - ; - 9 f 0 > ;                           ",
"                                                                ; w a & & e 0 g 0 w 1 - - - ; 7 > ;                             ",
"                                                              ; ; ; - < i ; > > > & 7 2 T 4.9 - ;                               ",
"                                                            - 7 6 6 5 7 > ; ; > 7 h C ) D.oXs y <                               ",
"                                                          # x ( W A S ; : q h C Y E >.z.E.-.%  .-                               ",
"                                                          @  .y./ ( T e S Y W / ( / z.U.;.. 3.U # <                             ",
"                                                          % x C.,./ / A T / &.,.,.l.C.] X 3.L.; 9 ;                             ",
"                                                          ; % %.H.k.k.t.<.t.H.H.J.5.r # =.W.P c 1.$                             ",
"                                                          > : % d  .=.4.N.c.:.{ y # = ^ T.Z.$ c.c.$                             ",
"                                                        ; 7 6 k & & # # # e & # , L _ S.T.m 9 H.B.#                             ",
"                                                        ; q C Z e [ > D %.i.9 9 K ^ h.S.U # R F.B.-                             ",
"                                                        > 2 C Y < % 9 H.=.< - H Q j.x.! % j $.G.I.<                             ",
"                                                        : 5 Z 9 i I i.5.% , N ! j.K.^ & q T >.G.I.;                             ",
"                                                        > 4 C j R y.c # u H ! x.P.~ & 8 Y / >.H.I.>                             ",
"                                                        - 4 6 6 l & - N K ` K.L.m # f J / ( ,.H.I.>                             ",
"                                                        > 8 2 > ; u K Q j.T.w.< % l A / $./ u.R.v.-                             ",
"                                                        - < ; & 8 L _ h.j.m # 9 Z Y / / E ( ,.P - ;                             ",
"                                                        - 8 6 j < % > > o # j J Z H Z h q > ; 9 < ;                             ",
"                                                          ; z ! 2.Z.5.{ x < ; # # # - r x @.~ z ;                               ",
"                                                          > ; u K q.x.K.K.S.S.j.=.q.w.h.q.` u - ;                               ",
"                                                            - ; - = p H ^ 2.h.q.q.' ^ K 6 + # ;                                 ",
"                                                            ; 8 q < ; - # - , 8 3 : : - # ] -.-                                 ",
"                                                            ; : 6 Y S Z ;.9 - ; ; , , m z.Y. .-                                 ",
"                                                            > ; > 8 3 7 m <     ; , : q m # # >                                 ",
"                                                            ; 8 u 9 y M d -     - , 8 , i w.+.#                                 ",
"                                                            ; > K Q h.P.P #     ; , K _ h.P.x #                                 ",
"                                                              ; 8 H K z -         ; i H H p &                                   ",
"                                                                - - > ; ;         > - - - -                                     ",
"                                                                                                                                ",
"                                                                                                                                ",
"                                                                                                                                ",
"                                                                                                                                ",
"                                                                                                                                ",
"                                                                                                                                "
};
