/* XPM */
static char *monster1659721130[] = {
/* columns rows colors chars-per-pixel */
"64 64 210 2 ",
"   c None",
".  c #180E01",
"X  c #161003",
"o  c #1A1306",
"O  c #1C1609",
"+  c #1E190C",
"@  c #1D1E13",
"#  c #201506",
"$  c #211709",
"%  c #231B0D",
"&  c #281E0F",
"*  c #251E12",
"=  c #281F11",
"-  c #211F1A",
";  c #1E241B",
":  c #1C2416",
">  c #262115",
",  c #292216",
"<  c #25241B",
"1  c #292519",
"2  c #24281D",
"3  c #2C291E",
"4  c #2C2717",
"5  c #1F2826",
"6  c #1D2D33",
"7  c #1E313A",
"8  c #1F3B38",
"9  c #242523",
"0  c #242A25",
"q  c #2C2B22",
"w  c #25262B",
"e  c #242C2D",
"r  c #2C2E2A",
"t  c #282720",
"y  c #312E25",
"u  c #372527",
"i  c #23322A",
"p  c #2D342C",
"a  c #2F3027",
"s  c #313126",
"d  c #34352B",
"f  c #3A362A",
"g  c #37382F",
"h  c #242D33",
"j  c #282C35",
"k  c #233333",
"l  c #2A3234",
"z  c #243A34",
"x  c #25343B",
"c  c #2C343B",
"v  c #283B39",
"b  c #363B32",
"n  c #3C3C33",
"m  c #31343B",
"M  c #333C3D",
"N  c #303435",
"B  c #403B30",
"V  c #412D36",
"C  c #25413D",
"Z  c #2D433C",
"A  c #3C423C",
"S  c #38433B",
"D  c #43453E",
"F  c #233743",
"G  c #253A45",
"H  c #293B44",
"J  c #263C49",
"K  c #293E4C",
"L  c #333C43",
"P  c #573752",
"I  c #284849",
"U  c #384646",
"Y  c #2C4351",
"T  c #304755",
"R  c #3A4C53",
"E  c #344B5A",
"W  c #3A4D5B",
"Q  c #324857",
"!  c #295552",
"~  c #2F5E5C",
"^  c #275554",
"/  c #355657",
"(  c #34524C",
")  c #3B615B",
"_  c #3C5364",
"`  c #3D5669",
"'  c #3F586B",
"]  c #375061",
"[  c #376966",
"{  c #3E7370",
"}  c #434741",
"|  c #414943",
" . c #484D48",
".. c #44544E",
"X. c #4E504B",
"o. c #54534C",
"O. c #405355",
"+. c #4A5957",
"@. c #585B56",
"#. c #55424F",
"$. c #605E55",
"%. c #5F625C",
"&. c #63625A",
"*. c #415A6D",
"=. c #425E67",
"-. c #435F70",
";. c #545F60",
":. c #69476B",
">. c #4D6464",
",. c #496669",
"<. c #546465",
"1. c #5C6A6D",
"2. c #566A6C",
"3. c #446273",
"4. c #466878",
"5. c #4A6C7C",
"6. c #446578",
"7. c #586E71",
"8. c #447A77",
"9. c #537179",
"0. c #4F736C",
"q. c #656C69",
"w. c #606E71",
"e. c #637375",
"r. c #6A787A",
"t. c #7D7C76",
"y. c #787770",
"u. c #77766F",
"i. c #5B857D",
"p. c #47807E",
"a. c #82837D",
"s. c #7E448B",
"d. c #4C6F80",
"f. c #4D7283",
"g. c #517584",
"h. c #527B8C",
"j. c #577C84",
"k. c #6F7F82",
"l. c #A566BF",
"z. c #5C848C",
"x. c #518F8C",
"c. c #5B8586",
"v. c #598695",
"b. c #5C8A99",
"n. c #5C8A98",
"m. c #599A97",
"M. c #618286",
"N. c #63858A",
"B. c #718286",
"V. c #758589",
"C. c #798A8E",
"Z. c #648B93",
"A. c #7C8D91",
"S. c #66969A",
"D. c #7F9197",
"F. c #69A59F",
"G. c #5F91A0",
"H. c #6395A3",
"J. c #6896A3",
"K. c #6599AA",
"L. c #689AA9",
"P. c #729AA1",
"I. c #6BA6AA",
"U. c #70A6B5",
"Y. c #7FB1BE",
"T. c #6FB8B4",
"R. c #7CB3C1",
"E. c #819196",
"W. c #839499",
"Q. c #8A999E",
"!. c #87989E",
"~. c #999A95",
"^. c #8E8E89",
"/. c #8B9DA2",
"(. c #91A2A6",
"). c #93A5AA",
"_. c #98A9AD",
"`. c #9CADB3",
"'. c #88A9B2",
"]. c #A1B2B6",
"[. c #A3B4B8",
"{. c #ABB7B8",
"}. c #B2BAB9",
"|. c #B18BCB",
" X c #ADBEC2",
".X c #CD9AF2",
"XX c #CDA1F2",
"oX c #E5B6FF",
"OX c #87C0D0",
"+X c #B1C1C5",
"@X c #B6C7CB",
"#X c #BBCACE",
"$X c #B8C8CD",
"%X c #BDCDD1",
"&X c #AEC0C6",
"*X c #C4D2D5",
"=X c #CDDADD",
"-X c #C7D5D9",
";X c #D4DCDD",
":X c #C0CFD3",
">X c #CCDCE1",
",X c #D3DFE1",
"<X c #DCE3E5",
"1X c #DBE9ED",
"2X c #D9E6EA",
"3X c #CDE0E6",
"4X c #EBF1F1",
"5X c #F3FAFC",
"6X c #FCFFFF",
"7X c #E1E6E6",
/* pixels */
"                                                                                                                                ",
"                                                                                                                                ",
"                                                                                                                                ",
"                                                                                                                                ",
"                                                                                                                                ",
"                                                                                                                                ",
"                                                                                                                                ",
"                                                                                                                                ",
"                                                                                                                                ",
"                                                                                                                                ",
"                                                                                                                                ",
"                                                                1                                                               ",
"                                                                , ,                             1 1                             ",
"                                                              > s 1                             , 1                             ",
"                                                              % >.g     $ % , , % # $         $ +.A $                           ",
"                                                              = E O.# 3 +.z.N.z.N.7.A 1 =   , r J.A O                           ",
"                                                              , h < U Z.L.=.M 6.=...H.J.A % t Q J.g                             ",
"                                                              1 , q -.d._ , % R r . 7.M.3 r J f.S.=                             ",
"                                                              , < H K ] W q 9 K e < O.S 9 F ` U. .%                             ",
"                                                              , l Y E Q Y Y J 7 6 7 G J 7 F 5.>.> y =                           ",
"                                                            , < J J Y *.' ' ` T Q ] Y 6 6 J H # 9.2.$                           ",
"                                                            , 0 G J K E ` ` *.` *.-.` ] K Y W j.K.z.1                           ",
"                                                            , 6 x < x J Y Q ' g.h.v.-.*.f.n.v.b.v.H.q                           ",
"                                                            , e 0 u = @ h K E 6.4.` ` *.3.h.J.6.4.U.g                           ",
"                                                            , q ; #.|.#.% < r 5 e k k L W ` *.*.b.Y.g                           ",
"                                                            1 1 l < |.oXl.u & V u 3 u , M 3.4.n.Y.+.*                           ",
"                                                X X o X X X > 1 s r 1 :.P < @ :.XX.Xs.+ W v.U.Y.U $ 1                           ",
"                                            > f @.t.^.~.t.&.s O , l e : ; v v > P :., U b.b.9.g = 3 1                           ",
"                                          + o.,X2X5X5X6X6X5X<Xt.* = < w 0 > 1 t > : c 3.d.R * - j < ,                           ",
"                                          X q.3X$X#X*X=X*X=X4X6X~.+ t u y N r , w x F x q = q j t 1                             ",
"                                          O %.$X+X{.[.$X#X@X;X4X5Xy.+ L c L L m t = , , q j j 0 ,                               ",
"                                    , , 1 % r.(.C.(.V.).(.$X-X=X2X<Xf - w w w j m m N N j j t , 1                               ",
"                                      < = y k.A.W./.C.W.A.). X%X*X6Xa.O t t q w 0 w 0 w , * = <                                 ",
"                                      , , - g ;.V./.!.!.C.D.A. X:X>X}.* 1 < < , 1 , 3 1 , n g >                                 ",
"                                      * d X.q * } W._./.!.(.W.C.+X*X7XB * H E ] R 3.,., < v.Y.a >                               ",
"                                  * % n r.1.<.} = d r.!././.).C.(.>X5Xo.+ H _ _ *.h.s & w 4.R.+.$                               ",
"                                * d q.V.A.C.r.1.;.g % n 1.r.W./.W.Q.q.3 0 Y W * g.U > 1 h _ L.j.%                               ",
"                                X a. XE.C.k.C.k.1.1.+.q , } B.E.o.& $ - x Q _ 5.,.% z 1 6 ] H.Z.,                               ",
"                                . @.,X$X(.E./.V.k.k.w.<.} = f s o 1 0 7 Y _ d.z., i k * x _ d.Z.y *                             ",
"                                  y =X-X%X`./.V.A.A.k.r.w.<.q 3  .& 9 H ] 5.b.d 2 I Z < F _ -.J.s =                             ",
"                                  o ~.5X@X:X/.A.(./.A.C.C.e.d , D q.n # b n.U > I [ S < Y _ f.S.1 >                             ",
"                                  % g 4X,X%X_.A.&X(./././.V.y e < y @.@.q < % C ~ 8.s 5 Y 3.G.z.> 1                             ",
"                                    o t.6X*X#X+X].D.Q.].`.].d v *.c > n q. .1 i p s 1 6 Q -.K.<.1 3                             ",
"                                      % ~.6X5X;X}.[.{.$X X>X%.o l h.j.> & o.@.& > 5 , i Q ` L.b ..g                             ",
"                                        % y.;X5X1X1X1X1X;X{.D > H ,.a 2 z > , 4 6 F v c Y f.M.= P.r                             ",
"                                          o 3 o.y.^.t.@.B % > 6 h & ; C ^ m.A - F Y _ _ 5.H.s S <.=                             ",
"                                              o X X X o % 1 e 9 , i ^ [ m.S.s 2 Y _ _ ' K.O.$ q = ,                             ",
"                                                        1 1 1 > , 9 Z ) ( , , 3 5.f.h.K.,.= y 1 q ,                             ",
"                                                          , i C Z b d > % % % $ 2 >.9.S % 1 D y >                               ",
"                                                          , < z ! x.T.F.S.i.i.i...s 3 a / p > 1 <                               ",
"                                                            , 1 2 C ! { p.x.m.m.x.{ ~ ! C ; % ,                                 ",
"                                                              1 , & & > > 2 i i i i 2 > * D N.y                                 ",
"                                                            , , 5 F v e U g % 1 = 1 0 v z.OXZ.,                                 ",
"                                                              1 1 r h 5 U S %   4 2 0 e ( S $ ,                                 ",
"                                                              1 i 2 < s d >       1 2 1 < S 0.>                                 ",
"                                                              , z ! [ I.c.1       < z ~ { T.,.&                                 ",
"                                                              , > C ! ! 3 >       , t I ! Z > ,                                 ",
"                                                                > > 2 , ,           , > , = 1                                   ",
"                                                                                                                                ",
"                                                                                                                                ",
"                                                                                                                                ",
"                                                                                                                                ",
"                                                                                                                                ",
"                                                                                                                                "
};
