/* XPM */
static char *head1659193553[] = {
/* columns rows colors chars-per-pixel */
"64 61 191 2 ",
"   c None",
".  c #262317",
"X  c #282317",
"o  c #272418",
"O  c #292418",
"+  c #2E291C",
"@  c #33261B",
"#  c #3C261D",
"$  c #34291D",
"%  c #3B291F",
"&  c #3B3516",
"*  c #352D20",
"=  c #3B2C22",
"-  c #3E3728",
";  c #3A3425",
":  c #42271F",
">  c #44281F",
",  c #453E15",
"<  c #462720",
"1  c #482720",
"2  c #442C22",
"3  c #4B2B23",
"4  c #532923",
"5  c #5B2A25",
"6  c #453229",
"7  c #4C342B",
"8  c #45372A",
"9  c #523027",
"0  c #55322A",
"q  c #5B332B",
"w  c #50382F",
"e  c #563931",
"r  c #5C3D35",
"t  c #622B27",
"y  c #652B28",
"u  c #6B2C2A",
"i  c #732D2C",
"p  c #7C2D2E",
"a  c #64352E",
"s  c #68322C",
"d  c #7B312F",
"f  c #6C3A33",
"g  c #693B35",
"h  c #733A34",
"j  c #7A3C36",
"k  c #783C36",
"l  c #534B13",
"z  c #534B13",
"x  c #5F4038",
"c  c #4B4432",
"v  c #64423B",
"b  c #6C423B",
"n  c #73413B",
"m  c #7B413C",
"M  c #5E5540",
"N  c #6C4741",
"B  c #6F4842",
"V  c #754A45",
"C  c #7B4E49",
"Z  c #7B4944",
"A  c #675D48",
"S  c #7E504B",
"D  c #776D55",
"F  c #7D7259",
"G  c #802E2F",
"H  c #832E30",
"J  c #8C2F33",
"K  c #902F34",
"L  c #833030",
"P  c #8A3132",
"I  c #813E39",
"U  c #933135",
"Y  c #9B3137",
"T  c #9E3338",
"R  c #983D3E",
"E  c #A33339",
"W  c #AD333B",
"Q  c #A5393D",
"!  c #B2343D",
"~  c #BA363F",
"^  c #B8383F",
"/  c #85790D",
"(  c #88413C",
")  c #92423F",
"_  c #BD3740",
"`  c #BD3840",
"'  c #B53D43",
"]  c #C03741",
"[  c #C43942",
"{  c #CE3B45",
"}  c #CF3F48",
"|  c #D13C46",
" . c #D23E48",
".. c #8C4E4A",
"X. c #8A4B47",
"o. c #9A4542",
"O. c #984845",
"+. c #83524D",
"@. c #8B514D",
"#. c #8A5552",
"$. c #8F5855",
"%. c #855450",
"&. c #925A56",
"*. c #995E5B",
"=. c #955956",
"-. c #A74947",
";. c #AC4B49",
":. c #A84847",
">. c #B34D4C",
",. c #B74A4B",
"<. c #BA504F",
"1. c #A35553",
"2. c #A55C5A",
"3. c #B95655",
"4. c #A6605E",
"5. c #8A7E63",
"6. c #A46362",
"7. c #AB6766",
"8. c #B16A69",
"9. c #BB6C6C",
"0. c #B86362",
"q. c #C44349",
"w. c #CC4249",
"e. c #C9494E",
"r. c #D5434B",
"t. c #D8464E",
"y. c #D9484F",
"u. c #D44C52",
"i. c #DC4C52",
"p. c #CC5354",
"a. c #C55656",
"s. c #D35557",
"d. c #DD5156",
"f. c #D65758",
"g. c #DC595C",
"h. c #D7585A",
"j. c #E15157",
"k. c #E3555A",
"l. c #E65A5D",
"z. c #E85C5F",
"x. c #D45F60",
"c. c #E55D61",
"v. c #E95D61",
"b. c #C86869",
"n. c #D96A6C",
"m. c #D76F71",
"M. c #C97374",
"N. c #CC787A",
"B. c #C77577",
"V. c #D27B7D",
"C. c #D87578",
"Z. c #EB6265",
"A. c #E46268",
"S. c #ED6669",
"D. c #EE6A6E",
"F. c #F1696D",
"G. c #F0676A",
"H. c #ED6D72",
"J. c #F06F73",
"K. c #E9777B",
"L. c #F27175",
"P. c #F37579",
"I. c #F5797E",
"U. c #97890A",
"Y. c #A49609",
"T. c #D4C103",
"R. c #94876B",
"E. c #A99A7A",
"W. c #D67D80",
"Q. c #DB7F82",
"!. c #EC7D81",
"~. c #F57D82",
"^. c #F97E83",
"/. c #B5A684",
"(. c #DE8185",
"). c #E68589",
"_. c #EC8488",
"`. c #EF898E",
"'. c #ED8186",
"]. c #F68186",
"[. c #F88187",
"{. c #FA848A",
"}. c #F38A8E",
"|. c #FC898E",
" X c #F4858A",
".X c #F68D92",
"XX c #FD8D93",
"oX c #FE9196",
"OX c #FF9399",
"+X c #C3B38F",
"@X c #CCBB95",
/* pixels */
"                                              O O O O O X O O X O O o O                                                         ",
"                                    O O O O O O O O O O X X O O O O o . O O O O O                                               ",
"                            O O O O O O O O . . . . . . X X . O X . . . . o O O O O O O                                         ",
"                        O O O O O . . . O + % 3 q b n X.@.$.$.@.+.Z g 0 2 @ O . . . O O O O                                     ",
"                    O o O X O . . $ 3 h O.3.m.K. XXXXXXXXXXXXX|.{. X XI.C.b.1.j 9 $ . O O O O O                                 ",
"                O O O o X . $ r *.M.K.].oXoXXX{.~.P.J.D.S.c.g.g.g.g.l.Z.G.F.L.L.A.a.I 2 O . O O O O                             ",
"              O O O o o = S B..XOXOX|.[.P.D.Z.v.z.l.<.o.h q 4 2 2 9 q j ,.l.v.v.Z.F.S.f.o.7 O O O O O                           ",
"          O O O o . = +.W.oXOXoXK.a.>.>.p.l.l.f.-.a % . X . . . O . . . @ h ) ;.;.;.;.>.a.m...$ . O O O                         ",
"        o O o o $ B N.OXOXoXN.C 3 $ + + 2 q a 3 + . O O O O X X . O O O . . O O O + O O $ b K.>.2 . O O O                       ",
"      O O O o 7 8.oXOXOXXX4.* . . O . . . . . X O O o o O # 4 5 4 % O O O X O O O O O O O . +.J.<.3 . O O                       ",
"    O O O O N (.OXoX(.m.O.@ X O . O O @ . . . X . . @ t K _ [ { { ^ T y + . X X X O @ O O . = b.Z.>.% . O O                     ",
"    O O o V .XOX.X&.% % + X X + 4 P W W P u 3 3 t P W { | { { { { | | { U 5 4 t i G J u + O O 2.G.z.j . O O                     ",
"  O O . w ).XXI.3.$ . o X O O H [ { { | | { [ [ { | | | { { { { { [ ] [ | ] ! ~ ^ ! ! t . X . 4.F.z.<.@ o O                     ",
"  O O . C [.F.g.q . O . X O 4 W _ _ ] ] [ { | { { | { _ _ ] { { ^ ! ! ! ~ ! W ! W W i O X X $ C.G.z.h.3 . O                     ",
"  O O . 0 g.z.p.% . O 4 u J W ! W ! W E E W _ { | { _ W W ! ! _ ! W ! W ! ! W ! Y 5 O O O X ..|.Z.z.<.$ O O O                   ",
"  O O O + ) g.f.2 . O y U J J p i t 4 1 < 1 4 p ! _ W W W W W ! ! W W ! ! W ! H : X X X O n  X{.v.f.9 X O O O                   ",
"O O O O O O q >.I @ O O O @ O O O O . . . . . O 4 U ! W ! ! W W W ! ! ! ! W p @ o O O @ ( !.OXP.f.s O O O . O                   ",
"O O O . . O . $ a q @ O . O O O O O . . . . O O . % i Y Y H u 5 5 y u i u 4 @ X O O % O.~.oXXXa.q O O O O O O                   ",
"O O . = 6 . X O . @ = * @ @ @ @ @ = 9 r e 6 + . X O O @ # O X X . . . O X . X X . 7 0.XXOX`.1.2 . O O O O O O                   ",
"O O . v W.+.= . X O . O * 9 j o.<.x.!..X}.!.0.g + X O O X X X X . . . . O . . + b C.oX).6.r O X O o 3 5 O O O                   ",
"O O . B oXoXN.C * . . O O . + 2 a O.0.b.n.H.I.~.=.% O O o O = q h g q 6 2 2 q X.N.8.V 8 + . X X + 5 E u X X O                   ",
"o o . V oXoXOXoXW.#.7 O . . O . . X O @ 1 q f j O.q O O + 0 R >.>.;.-.I f a q 7 = o . . X X X > p W ! u X X O                   ",
"O O . S oXOXoXOXOXOX).8.B 6 + . . . O O . . . . . O O O O @ @ O O + O O o . . . o . . . + > d W ~ ! ! u O O O                   ",
"O O o %.OXOXoXOXoXOXOXOXXX).9.#.q = O O . . . . . O . O O . . O O . O . O o o o O @ 1 u U ~ { { | [ ! p X O O                   ",
"O O . #.OXOXOXoXoXXXoXoXoXOXOXOX Xm.b.1...B r 7 6 = $ @ @ O O @ O @ @ @ = < 4 u G Y ! [ [ Y p p U ~ ~ G O O O                   ",
"O O . &.OXOXOXOXoX~.XXoXoXoXOXOXoXOXOXOXoXoX.X}.).).W.b.R U K J J K U U E W W ~ [  .t.R 3 @ X . O 4 ! K O O O                   ",
"O O . &.OXOXoXoXoXoXoXoXXXXXoXoXOXoXoXOXoXOXXXXXXXXX|.P.k.i.u.r.r.w.w.} } r.t.k.c.L.M.= X X X X O O 5 E @ O O X                 ",
"O O O *.OXoXOXoXOXoX.XoX{.S.H.I.|.XXoXoXOXoXXXXXXXL.c.c.v.c.v.v.L.J.v.v.c.v.v.{.|.oX+.. X O , , O O % T 1 O O O                 ",
"O O . *.oXoX|.V.$.N r V :.f.j.l.v.S.L.XXoXoXoXOXoX{.v.v.Z.P.~.~.W.$.k j ,.c.S.XXOX.Xv . O l T.Y.O O @ E u . X O                 ",
"O O . &.OXOX0.= . . . . O 5 W r.d.l.H.oXOXoXOXoXoX{.v.v.{.oXOX8.* o o . @ j c.^.oXoXB . O & U.l O . $ W U @ O O O               ",
"O O . &.OXW.; . . . . . O o < Q  .i.H.XX~.L.XXOXXXH.z.L.oXOX).6 . . . . . O R g.L.OX7.O O . . O O O 5 ] ! t O O O O             ",
". O . %.OX*.. O . w +.w O O . < !  .j.S.v.v.].oX{.v.z.J.XXOX6.O O O z & O . 4 [ i.L.K.g O . . . . # E ] ! W 3 o O O O           ",
"O . . C oXV . . * (.OX).V . O O 4 q.j.v.v.I.oXOX~.l.v.l.]..Xr . . , T.l & O : ^ | k.l.w.L 4 > 3 i W ~ E P L 4 O O O O O         ",
"O . o B oXC . . 8 ).OXOX.XV . . @ ^ z.v.v.{.OX|.I.D.z.l.L.`.7 . O l U.z $ + > ^ { i.k.| | { [ [ ~ Y u > + o O O O O O O         ",
"O O . x .X*.. . @ ,.Z.L.C.1.q > d q.k.c.l.D.].L.S.I.S.l.Z.].N . O O O O O O u ! { i.l.y.{ { [ Y t @ O O o o O O O O O O O       ",
"O O . 7 .XN.* o O u | Q % O h s.d.{ y.Z.L.Z.z.z.l.S.~.H.l.L.b.% . O . o O > E ^ { i.v.l.y.! i % O O . X * - 8 + O O o O O O     ",
"  O O = (..Xx . . @ E L . . % s.j.{ y.G.XX~.v.z.z.l.I.].z.z.c.Q 5 # # # t Y ! [ r.k.l.u.Q 4 O . O X 8 F E./.E.- X O O O O O O   ",
"  O o @ B.OX9.+ O O # d # + 5 w.r.r.l.Z.|.].c.z.z.D.{.J.z.z.z.i.[ E Y W ~ ] [ r.k.l.q.P % o O O O O A /.@X@X+Xc . X 3 : O O O   ",
"  O O o 6.oX.Xm o O O @ 4 d ^ | r.j.z.z.L.I.z.S.~.~.D.l.z.z.z.l.j.w.{ { |  .t.k.k.q.p $ . O . . O O O - M F D * X X i U @ o O O ",
"  O O . C oX|.g.s o O O O # u U ] r.z.z.z.v.z.I.P.v.v.F.D.v.l.t.r.r.| y.j.k.z.l.q.p + o . $ A * X O O X . . O O O @ E ! 5 . O O ",
"  O O . w `.L.k.s.I @ X O O . O u { j.z.z.L.I.I.v.z.P.oXoXL.l.d.| | r.j.v.z.z.w.H @ . . $ R.+XD . O . . . . . . O d [ ~ p O O O ",
"    O O * B.H.i.z.z.>.q @ . O . > [ j.z.G.XXOX|.Z.z.].oXOXI.z.z.l.k.l.z.z.z.z.,.% . o $ R.@X@XD . O $ a 3 2 = 0 o.w.| _ G O O O ",
"    O O o $.c.r.z.z.v.k.;.h > % ) r.y.z.S.oXOXoXI.S.L.|.|.D.z.z.Z.P.v.z.z.z.z.;.O O . * 5.E.R.- X . q l.g.s.s.d.i.| { ~ p O X O ",
"    O O o 6 ' } y.t.j.z.z.z.f.s.l.l.z.z.v.L.[.I.H.Z.z.Z.Z.l.z.z.l. XI.z.z.z.z.f.q o O O + * + X O X o.v.v.k.t.| { { ~ W y X O O ",
"      O O O H ] | { { y.z.z.z.v.z.z.z.z.v.z.v.z.z.z.z.z.z.v.z.z.l.J.I.v.l.v.z.v.p.a + X O X O . X f h.k.i.r.| { { { ! E 1 O O O ",
"      O O o 1 W [ | | | z.z.z.z.z.c.z.z.z.z.z.z.k.l.z.z.z.l.z.z.z.z.v.z.z.z.z.z.v.h.) 3 @ X + : I u.y. .{ { | { { _ ! J O O O O ",
"      O X X O p ! [ { { i.z.z.z.z.z.z.z.z.z.z.i.| r.k.z.z.z.z.z.z.z.z.z.z.z.z.l.z.l.k.e.:.:.:.q.r.| | | { | | { { ! W 5 O O O   ",
"        o X X = Y ^ [ | w.k.z.z.z.z.z.z.z.z.z.r.{ { d.v.z.z.z.z.z.j.i.d.l.z.z.l.i.r.| | | y.t.| { { | { { | { { _ ! J @ . O O   ",
"        O O O O 4 W ! [ { r.j.c.z.z.z.z.z.z.z.y.| | r.j.l.l.l.z.z.r.| | r.l.k. .| | | { { { { { | { { | | { { [ ! E 1 O O O     ",
"          O O O O y W _ { { r.j.z.l.i.j.k.z.z.z.j.i. .i.k.k.k.k.k.t.| |  .l.j.| { | | { { | { { { | { { | [ ~ ! W y O O O O     ",
"            O O O O i W ! ] {  . . .{ { | r.i.z.z.z.l.l.v.z.l.t.t.r. .| y.z.l.t.{ | { | { { { | { | | { ~ ! W ! i O O O +       ",
"              O O O O u W ! _ { { { | | | | |  .i.j.z.z.l.v.l.l.l.k.k.j.j.k.j.t.r.{ { | { | { { | { [ ! ! W W i O O O O         ",
"              O O O O O 4 Y ! ! ] { { | | | { | | | r.t.i.j.d.i.t.r. . .| | { { | | { { { { { { [ ~ W W ! Y 5 O O O O           ",
"                O O O O O # p W ! ! ~ ] [ [ [ { { { { { { | { { | { { | { | { | { { { | { { [ ~ ! ! W E i # X O O O             ",
"                    O O O O O 4 H W ! W ! ! ! ! ! ! ! ! ! _ { { { | { | | | { { { { { { ] ~ ! ! W Y i : X X O O O               ",
"                      O O O O . @ 1 p Y W ! ! W W W ! W W ! ! _ ~ ~ _ ] [ [ [ [ ] ] ~ ! W W Y p 4 @ . X X X O                   ",
"                        O O O O O o O % 4 i J E W W W ! ! ! ! ! ! ! ! ! ! W ! W W Y K p y 1 @ O . o O O O O                     ",
"                            O O O O O O . X + # 1 5 u i p p p H G G p p i u 5 4 > % @ X X X O O O O O O                         ",
"                                O O O O O O X O . O . . O O O X O O X O O X X X o o O O + X O O O                               ",
"                                      O O O O O O O O O O O O O O O O O O X O X O O O O X X                                     ",
"                                              O O O O X O O O O O X O O O O O O                                                 "
};
