/* XPM */
static char *player_R1659709048[] = {
/* columns rows colors chars-per-pixel */
"64 64 213 2 ",
"   c None",
".  c #180D04",
"X  c #1E130A",
"o  c #1B180B",
"O  c #1D1C12",
"+  c #1B1816",
"@  c #0B0500",
"#  c #22140D",
"$  c #211A0E",
"%  c #35190F",
"&  c #241C12",
"*  c #2A1E14",
"=  c #211E18",
"-  c #311E11",
";  c #1C261C",
":  c #3B2C0E",
">  c #252115",
",  c #292216",
"<  c #242519",
"1  c #2A2519",
"2  c #252A1C",
"3  c #2C2B1D",
"4  c #332A1E",
"5  c #362614",
"6  c #28311F",
"7  c #3E3012",
"8  c #142924",
"9  c #193929",
"0  c #322D22",
"q  c #3C2E21",
"w  c #243422",
"e  c #213A26",
"r  c #2B3A23",
"t  c #203E29",
"y  c #2C3322",
"u  c #36342B",
"i  c #353727",
"p  c #3C3C35",
"a  c #57170C",
"s  c #471C10",
"d  c #61180D",
"f  c #7E1006",
"g  c #43271B",
"h  c #483913",
"j  c #513E11",
"k  c #6D281B",
"l  c #48372A",
"z  c #483529",
"x  c #643A2B",
"c  c #1B452D",
"v  c #1C4C32",
"b  c #1A4732",
"n  c #155D3D",
"m  c #1B5C3B",
"M  c #1A5435",
"N  c #22442C",
"B  c #2A492C",
"V  c #33492C",
"C  c #3C4435",
"Z  c #255334",
"A  c #2A5736",
"S  c #375937",
"D  c #16603E",
"F  c #27643D",
"G  c #356C3E",
"H  c #5A450F",
"J  c #5D4A10",
"K  c #6B540E",
"L  c #654D0E",
"P  c #7C610C",
"I  c #47473A",
"U  c #544939",
"Y  c #44553C",
"T  c #724131",
"R  c #1B6641",
"E  c #1C6A43",
"W  c #166943",
"Q  c #1E7549",
"!  c #226C44",
"~  c #2F6242",
"^  c #366745",
"/  c #227246",
"(  c #237648",
")  c #287A4A",
"_  c #377545",
"`  c #4C554B",
"'  c #565C59",
"]  c #4E514B",
"[  c #685C4A",
"{  c #4B6647",
"}  c #506C4D",
"|  c #577354",
" . c #596B52",
".. c #6C604E",
"X. c #786B56",
"o. c #5C6565",
"O. c #676B67",
"+. c #6D7B7E",
"@. c #697779",
"#. c #727876",
"$. c #AF2515",
"%. c #953727",
"&. c #A23B2A",
"*. c #8B1A0D",
"=. c #D13D2B",
"-. c #854131",
";. c #B44434",
":. c #856B0D",
">. c #945341",
",. c #A05442",
"<. c #887963",
"1. c #CF5C48",
"2. c #EF735E",
"3. c #D26651",
"4. c #2C824D",
"5. c #22804F",
"6. c #338C4E",
"7. c #37884F",
"8. c #348C52",
"9. c #398F53",
"0. c #369253",
"q. c #3B9554",
"w. c #3E9956",
"e. c #3C9B58",
"r. c #329051",
"t. c #488657",
"y. c #419A57",
"u. c #429C5A",
"i. c #588A5E",
"p. c #44A15C",
"a. c #45A65F",
"s. c #459B64",
"d. c #5B9767",
"f. c #65956B",
"g. c #6D9D73",
"h. c #799E79",
"j. c #6B8868",
"k. c #4BA362",
"l. c #4FAB67",
"z. c #55AA6B",
"x. c #55A76A",
"c. c #5CB272",
"v. c #55B16D",
"b. c #68A875",
"n. c #74AC7D",
"m. c #6ABC7E",
"M. c #65B679",
"N. c #9E810A",
"B. c #AE8E0A",
"V. c #D0A704",
"C. c #EABF02",
"Z. c #F6C702",
"A. c #EEC002",
"S. c #918269",
"D. c #A19175",
"F. c #6F7E81",
"G. c #707F82",
"H. c #738185",
"J. c #75858A",
"K. c #79888D",
"L. c #7E8D92",
"P. c #78BD86",
"I. c #6FBF81",
"U. c #77C58A",
"Y. c #74C889",
"T. c #849499",
"R. c #969A97",
"E. c #828987",
"W. c #A19F9E",
"Q. c #83A481",
"!. c #8C9DA3",
"~. c #8FA0A7",
"^. c #92A3A9",
"/. c #99AAAF",
"(. c #91A1A6",
"). c #9BACB2",
"_. c #A5B5BA",
"`. c #AFB5B4",
"'. c #82CC93",
"]. c #89C995",
"[. c #85D398",
"{. c #8ACB97",
"}. c #93DAA2",
"|. c #8ADFA1",
" X c #9DE1AB",
".X c #95E5A7",
"XX c #93E8A8",
"oX c #A5EBB3",
"OX c #ABF2BA",
"+X c #B1F1BC",
"@X c #A0E4AD",
"#X c #AEBEC2",
"$X c #B6C5CA",
"%X c #BFCED3",
"&X c #BCFBC6",
"*X c #BDFFCB",
"=X c #B5F9C2",
"-X c #C7CCCC",
";X c #C0CFD3",
":X c #C5D5D9",
">X c #CBD9DD",
",X c #C4D3D7",
"<X c #D2D9D9",
"1X c #C2FFCF",
"2X c #CBDBE1",
"3X c #D0DEE1",
"4X c #D4E2E5",
"5X c #D4E4E8",
"6X c #DDECF2",
"7X c #EAF6F9",
"8X c #FCFFFF",
"9X c #F3FBFD",
"0X c #E2EDEF",
/* pixels */
"                                                                                                                                ",
"                                                                                                                                ",
"                                                                                                                                ",
"                                                                                                                                ",
"                                                                                                                                ",
"                                                                                                                                ",
"                                                                                                                                ",
"                                                                                                                                ",
"                                                                                                                                ",
"                                                                                                                                ",
"                                                                                  . X X # X                                     ",
"                                                                            * 1 i ` } } { Y y & #                               ",
"                                                                        1 , 2 ~ U..XOX*X=XoX{.g.Y * &                           ",
"                                                                      > 1 v n W ( s.'. XOX=X=X@X.Xb.3 &                         ",
"                                                                    , 2 M R R / / R ) x.I.}.OX=X+XOX'.i &                       ",
"                                                                  , 1 M W ) 8.4.7.8.4.4.6.k.U.}.@X&X+X].y &                     ",
"                                                                  * b E ( w.w.q.u.q.y.y.8.9.y.m.'.}.+X*XQ.1                     ",
"                                                                * w D ! ) q.w.q.y.z.y.y.y.y.q.q.U.[.oX&X*X| $                   ",
"                                                                , v R / 4.u.q.q.y.s.0.0.w.w.y.q.c.'. X=X*X}.1                   ",
"                                                                2 n R ( 9.q.8.8.y.u.M.I.k.q.u.k.x.c.U.+X*X+XV #                 ",
"                                                              * w n R ( q.8.q.w.w.u.M.a.y.w.q.c.'.p.p.}.&X&X} X                 ",
"                                                              * t n D ( q.w.w.w.y.q.9.y.w.w.u.z.m.u.r.m.+X&X| X                 ",
"                                                              , t m n ! q.w.q.y.7.q.y.y.y.q.x.M.9.y.q.M. X*X| X                 ",
"                                                              1 , 8 v R 4.q.p.y.y.y.y.y.y.w.0.u.u.y.u.]. X1X| X                 ",
"                                                              = h K + 8 9 A _ ! / 4.0.0.0.p.U.P.y.w.y.[.1Xn.3 >                 ",
"                                                              > 4 A.V.:.H - 2 M 2 8 9 b b 9 C 3 _ y.k.=Xj.X 3 >                 ",
"                                                              1 + L C.Z.B.- Z Z * K j 7 H K : > 7.q.'.j.X g.Y X                 ",
"                                                              1 N 8 , 7 + B ) ! > :.A.A.A.N.1 ^ y.s.f.. g.'.3                   ",
"                                                              , M E v c t.z.q.0./ + : L h O A r.9.M.i { XXi.O                   ",
"                                                              , v / ) 0.k.y S _ d.b.^ 8 c F ) 9.p.b.1 n.|.` $                   ",
"                                                              , b E 8.a.^ # 6 # V v.I.I.u.9.9.x.v.i.> ].b.,                     ",
"                                                              * t W m F 7.A _ r _ x.c.z.U.m.Y.v.l.d.3 [.G &                     ",
"                                                              , 1 c 1 = N 1 Z F 3 4 g.c.6.x.Y.r.p.d.i g.>                       ",
"                                                                , 1 t 2 * e , * 2 ; 3 b.k.w.w.6.z.n.3 i *                       ",
"                                                                , 6 D n M W c N R n 2 r c.k.a.Y.Y.{ $ ,                         ",
"                                      . 1 > .                     , 2 v Q E Q ) E n m * S z.P.f.V $ 1                           ",
"                                  $ I R.-X-XE.u X   @               , * , e B Z ~ n m B $ < < & = 1                             ",
"                              0 ' `.9X9X9X7X0X/.C O.R.#.i           > e Z V r 3 3 3 > 2 , 1 1 1                                 ",
"                            * G.>X7X3X,X3X5X:X_.).5X9X8X<Xl       X 2 n r.a.u.e._ r % 5 ; M.| .                                 ",
"                            = ' !.$X$X_.#X;X#X/.>X:X;X;X8X`.1 ] O.I O m ) r w A e % %.5 c [.n..                                 ",
"                              > o.T.!.!.!.!.T.!.,X%X,X>X5X$X/.0X8X8XW.3 2 l U = % a U 4 M |.D.o                                 ",
"                                u G.L.^.!.!.J.L.^.!.^._.$X/.%X>X:X4X8X`.O ..D.3 ;.;.4 > M P.} O                                 ",
"                                & ` K.L.!.L.@.L.~.!.!.!.!.K.$X>X:X,X>X;X1 ..S.1 -.2.-.> * O & <                                 ",
"                                  1 o.G.K.K.G.G.~.~.!.!.T.H.~./._.>X5XR.& X.X.o g %.1 s *.&.z >                                 ",
"                                    , C ] ] ' G.K.T.~.T.+.K.!.!.!.).:XO., <.U 4 z - < a $.3.4 >                                 ",
"                                        o   O ' H.J.K.G.F.J.!.^.~.!.!.u l <.1 <.U & < s =.-.& ,                                 ",
"                                              & p ] ] u p G.K.T.T.^.H.> ..X.0 [ 1 a *.$.3.z > 1                                 ",
"                                                  o X   O p O.F.+.H.I 0 X.U 2 I 1 a ;.3.T > 5                                   ",
"                                                            1 u p 0 > U X.4 z z & ; 4 4 ; 1 ,                                   ",
"                                                                  $ u [ U & k %., k - & # ,                                     ",
"                                                                    3 z , 6 * & 1 5 1 V j.3                                     ",
"                                                                    > 6 F l.n.= , 9 ! 6.Y.C                                     ",
"                                                                    , v R s.i.# , e Q Q ! 4                                     ",
"                                                                    , * < w 1     1 w w < ,                                     ",
"                                                                          *         , *                                         ",
"                                                                                                                                ",
"                                                                                                                                ",
"                                                                                                                                ",
"                                                                                                                                ",
"                                                                                                                                ",
"                                                                                                                                ",
"                                                                                                                                ",
"                                                                                                                                ",
"                                                                                                                                "
};
