/* XPM */
static char *rsz_22_enemies_1_attack_0011659705689[] = {
/* columns rows colors chars-per-pixel */
"64 64 213 2 ",
"   c None",
".  c #180D04",
"X  c #1E130A",
"o  c #1B180B",
"O  c #1D1C12",
"+  c #1B1816",
"@  c #0B0500",
"#  c #22140D",
"$  c #211A0E",
"%  c #35190F",
"&  c #241C12",
"*  c #2A1E14",
"=  c #211E18",
"-  c #311E11",
";  c #1C261C",
":  c #3B2C0E",
">  c #252115",
",  c #292216",
"<  c #242519",
"1  c #2A2519",
"2  c #252A1C",
"3  c #2C2B1D",
"4  c #332A1E",
"5  c #362614",
"6  c #28311F",
"7  c #3E3012",
"8  c #142924",
"9  c #193929",
"0  c #322D22",
"q  c #3C2E21",
"w  c #243422",
"e  c #213A26",
"r  c #2B3A23",
"t  c #203E29",
"y  c #2C3322",
"u  c #36342B",
"i  c #353727",
"p  c #3C3C35",
"a  c #57170C",
"s  c #471C10",
"d  c #61180D",
"f  c #7E1006",
"g  c #43271B",
"h  c #483913",
"j  c #513E11",
"k  c #6D281B",
"l  c #48372A",
"z  c #483529",
"x  c #643A2B",
"c  c #1B452D",
"v  c #1C4C32",
"b  c #1A4732",
"n  c #155D3D",
"m  c #1B5C3B",
"M  c #1A5435",
"N  c #22442C",
"B  c #2A492C",
"V  c #33492C",
"C  c #3C4435",
"Z  c #255334",
"A  c #2A5736",
"S  c #375937",
"D  c #16603E",
"F  c #27643D",
"G  c #356C3E",
"H  c #5A450F",
"J  c #5D4A10",
"K  c #6B540E",
"L  c #654D0E",
"P  c #7C610C",
"I  c #47473A",
"U  c #544939",
"Y  c #44553C",
"T  c #724131",
"R  c #1B6641",
"E  c #1C6A43",
"W  c #166943",
"Q  c #1E7549",
"!  c #226C44",
"~  c #2F6242",
"^  c #366745",
"/  c #227246",
"(  c #237648",
")  c #287A4A",
"_  c #377545",
"`  c #4C554B",
"'  c #565C59",
"]  c #4E514B",
"[  c #685C4A",
"{  c #4B6647",
"}  c #506C4D",
"|  c #577354",
" . c #596B52",
".. c #6C604E",
"X. c #786B56",
"o. c #5C6565",
"O. c #676B67",
"+. c #6D7B7E",
"@. c #697779",
"#. c #727876",
"$. c #AF2515",
"%. c #953727",
"&. c #A23B2A",
"*. c #8B1A0D",
"=. c #D13D2B",
"-. c #854131",
";. c #B44434",
":. c #856B0D",
">. c #945341",
",. c #A05442",
"<. c #887963",
"1. c #CF5C48",
"2. c #EF735E",
"3. c #D26651",
"4. c #2C824D",
"5. c #22804F",
"6. c #338C4E",
"7. c #37884F",
"8. c #348C52",
"9. c #398F53",
"0. c #369253",
"q. c #3B9554",
"w. c #3E9956",
"e. c #3C9B58",
"r. c #329051",
"t. c #488657",
"y. c #419A57",
"u. c #429C5A",
"i. c #588A5E",
"p. c #44A15C",
"a. c #45A65F",
"s. c #459B64",
"d. c #5B9767",
"f. c #65956B",
"g. c #6D9D73",
"h. c #799E79",
"j. c #6B8868",
"k. c #4BA362",
"l. c #4FAB67",
"z. c #55AA6B",
"x. c #55A76A",
"c. c #5CB272",
"v. c #55B16D",
"b. c #68A875",
"n. c #74AC7D",
"m. c #6ABC7E",
"M. c #65B679",
"N. c #9E810A",
"B. c #AE8E0A",
"V. c #D0A704",
"C. c #EABF02",
"Z. c #F6C702",
"A. c #EEC002",
"S. c #918269",
"D. c #A19175",
"F. c #6F7E81",
"G. c #707F82",
"H. c #738185",
"J. c #75858A",
"K. c #79888D",
"L. c #7E8D92",
"P. c #78BD86",
"I. c #6FBF81",
"U. c #77C58A",
"Y. c #74C889",
"T. c #849499",
"R. c #969A97",
"E. c #828987",
"W. c #A19F9E",
"Q. c #83A481",
"!. c #8C9DA3",
"~. c #8FA0A7",
"^. c #92A3A9",
"/. c #99AAAF",
"(. c #91A1A6",
"). c #9BACB2",
"_. c #A5B5BA",
"`. c #AFB5B4",
"'. c #82CC93",
"]. c #89C995",
"[. c #85D398",
"{. c #8ACB97",
"}. c #93DAA2",
"|. c #8ADFA1",
" X c #9DE1AB",
".X c #95E5A7",
"XX c #93E8A8",
"oX c #A5EBB3",
"OX c #ABF2BA",
"+X c #B1F1BC",
"@X c #A0E4AD",
"#X c #AEBEC2",
"$X c #B6C5CA",
"%X c #BFCED3",
"&X c #BCFBC6",
"*X c #BDFFCB",
"=X c #B5F9C2",
"-X c #C7CCCC",
";X c #C0CFD3",
":X c #C5D5D9",
">X c #CBD9DD",
",X c #C4D3D7",
"<X c #D2D9D9",
"1X c #C2FFCF",
"2X c #CBDBE1",
"3X c #D0DEE1",
"4X c #D4E2E5",
"5X c #D4E4E8",
"6X c #DDECF2",
"7X c #EAF6F9",
"8X c #FCFFFF",
"9X c #F3FBFD",
"0X c #E2EDEF",
/* pixels */
"                                                                                                                                ",
"                                                                                                                                ",
"                                                                                                                                ",
"                                                                                                                                ",
"                                                                                                                                ",
"                                                                                                                                ",
"                                                                                                                                ",
"                                                                                                                                ",
"                                                                                                                                ",
"                                                                                                                                ",
"                                    X X X X X                                                                                   ",
"                              # & 0 Y { } } Y u 1 *                                                                             ",
"                          & > Y g.'.oX=X*XOX.XU.~ w > ,                                                                         ",
"                        & 3 b..X@X=X&XOX X].s.( R n v < ,                                                                       ",
"                      & i '.oX=X&X=X}.I.x.) E ( / R n M 2 *                                                                     ",
"                    $ 3 ].+X1X@X[.U.k.6.4.4.8.4.4.8.) E m 1 ,                                                                   ",
"                    > ].=X+X}.'.M.y.9.8.y.y.q.y.q.y.y.) E b *                                                                   ",
"                  X | *X&XoX}.U.q.q.y.y.y.u.z.q.q.q.q.) ! n w *                                                                 ",
"                  1 }.1X=X}.].c.9.y.y.y.0.9.k.y.w.q.u.4.( R v ,                                                                 ",
"                # C OX&X+XU.c.z.a.u.q.k.Y.M.u.y.4.9.0.8.( R n <                                                                 ",
"                X } =X&X}.u.a.'.M.y.y.y.u.M.u.w.w.q.9.q.( R n y *                                                               ",
"                # } *X+XM.q.u.M.x.u.q.q.y.9.w.w.w.w.w.q.) D n t *                                                               ",
"                X | 1X XM.y.u.q.M.k.q.y.y.y.0.7.e.w.w.q.! n m t ,                                                               ",
"                # | *X@X'.u.y.u.u.0.y.y.y.y.y.y.u.p.0.4.R v 8 = 1                                                               ",
"                , 3 P.1X[.u.y.u.P.U.p.0.r.8.4.( ( _ Z 9 8 + K h =                                                               ",
"                , 3 X j.+Xa.y.G 4 C 9 b b 9 8 8 Z < 5 H :.V.C.5 >                                                               ",
"                X Y g.. j.'.q.9.= : K H h j K * Z Z , B.Z.C.J + 1                                                               ",
"                  1 ].g.. f.p.e.^ 5 N.A.A.A.:.> F 5.B + 7 5 8 N 1                                                               ",
"                  & t.oX{ i M.0.0.A = h L : + ! 0.0.z.t.c v E M ,                                                               ",
"                  # ` }.n.1 b.a.0.( F 9 9 ^ b.d._ A 4 x.0.5./ v ,                                                               ",
"                    > M.[.> i.c.z.0.q.s.m.m.l.V # 3 # _ a.0.E c ,                                                               ",
"                    $ S [.3 d.a.z.Y.M.U.x.M.x._ V _ B 4.F m W t *                                                               ",
"                      > b.i d.p.0.U.z.6.c.b.5 3 ~ Z 1 N > < N < ,                                                               ",
"                      * i 3 n.v.6.e.q.l.b.1 ; w & , e * 2 t 1 1                                                                 ",
"                        * & { U.Y.p.k.c.r < n D c c W M m n 2 ,                                                                 ",
"                          < & r f.P.x.S < A n E ) / E ! M 2 ,                     . , * .                                       ",
"                            3 * $ 2 < $ B m m F Z N w 1 * ,               @   # u E.-X-XR.I $                                   ",
"                                , , 1 1 2 1 4 3 3 r A A e ,           0 #.R.O.C /.6X7X9X9X9X`.' 0                               ",
"                                o | M.2 % - r _ w.p.a.r.n 3 X       l 3X9X9X4X/._.:X4X3X,X3X6X2X+.>                             ",
"                                o D.Y.c g %.- 9 A 6 r ) M ; I O.] 3 `.8X,X;X:X>X/.#X;X#X_.$X%X^.' >                             ",
"                                o L.|.M 1 x d % * U l 2 3 W.9X8X0X/.$X4X>X>X;X;X!.T.!.!.!.!.T.o.,                               ",
"                                O } P.M > q >.;.4 D...O `.8X4X:X2X;X/.$X_.^.!.^.L.H.^.!.~.L.F.u                                 ",
"                                < & < , O -.2.-., S...3 %X>X,X:X>X$XK.!.!.!.!.^.L.@.T.!.L.J.` $                                 ",
"                                > h %.*.s 4 &.g o X.X.$ R.5X>X_.^.^.H.T.~.~.!.^.G.G.J.J.G.o.3                                   ",
"                                * 4 1.$.a ; , g 1 U <., O.:X).!.!.!.K.+.L.!.T.K.H.' ] ` p >                                     ",
"                                , O ,.=.s < O U <.4 <.I u !.!.~.^.!.H.F.F.L.J.H.' *   X                                         ",
"                                , > h 1.$.*.d 3 [ , X.[ > H.^.T.T.K.H.p u ] ` p &                                               ",
"                                  1 ; T 3.;.a 3 I 3 U X.0 I H.F.+.O.p O   X o                                                   ",
"                                  , 1 < 4 4 ; > z z 4 X.U > 0 u u 1                                                             ",
"                                    , $ & * k , %.k o U [ l &                                                                   ",
"                                    3 j.V 5 5 1 * > y 1 z 1                                                                     ",
"                                    C Y.4.! 9 , > h.x.F 9 <                                                                     ",
"                                    3 ! Q Q e 1 X i.s.W c ,                                                                     ",
"                                    , < e w 1     , y 2 , ,                                                                     ",
"                                        * *         *                                                                           ",
"                                                                                                                                ",
"                                                                                                                                ",
"                                                                                                                                ",
"                                                                                                                                ",
"                                                                                                                                ",
"                                                                                                                                ",
"                                                                                                                                ",
"                                                                                                                                ",
"                                                                                                                                "
};
