/* XPM */
static char *player1659273507[] = {
/* columns rows colors chars-per-pixel */
"32 32 244 2 ",
"   c None",
".  c #030400",
"X  c #171E12",
"o  c #1C1D10",
"O  c #221D11",
"+  c #251D12",
"@  c #271D12",
"#  c #231E14",
"$  c #2F1E16",
"%  c #321F16",
"&  c #351E15",
"*  c #1C2013",
"=  c #182214",
"-  c #192415",
";  c #1D2418",
":  c #252014",
">  c #242115",
",  c #262014",
"<  c #262116",
"1  c #252316",
"2  c #242317",
"3  c #232417",
"4  c #292015",
"5  c #282317",
"6  c #292317",
"7  c #2C2116",
"8  c #2D2217",
"9  c #272018",
"0  c #24231B",
"q  c #212719",
"w  c #282418",
"e  c #292418",
"r  c #2B2418",
"t  c #2A2419",
"y  c #2B2419",
"u  c #2F251A",
"i  c #2F271B",
"p  c #2F251D",
"a  c #302318",
"s  c #36261C",
"d  c #39261D",
"f  c #3F251D",
"g  c #36281D",
"h  c #35291E",
"j  c #392A1F",
"k  c #3A2A1E",
"l  c #3C291E",
"z  c #303314",
"x  c #3B3212",
"c  c #3C2B20",
"v  c #3B2C21",
"b  c #3C2E24",
"n  c #3D2E24",
"m  c #363126",
"M  c #373126",
"N  c #373327",
"B  c #383327",
"V  c #3B352A",
"C  c #412119",
"Z  c #43271F",
"A  c #4C251F",
"S  c #532F1C",
"D  c #5F291F",
"F  c #482620",
"G  c #4D2721",
"H  c #4A2821",
"J  c #4D2820",
"K  c #582420",
"L  c #582621",
"P  c #542923",
"I  c #572823",
"U  c #572926",
"Y  c #502E26",
"T  c #552E27",
"R  c #5D2A26",
"E  c #5D2B26",
"W  c #532F28",
"Q  c #5A2D28",
"!  c #5B2F28",
"~  c #413527",
"^  c #483027",
"/  c #4F3128",
"(  c #4A352C",
")  c #4E372E",
"_  c #473C2D",
"`  c #51322A",
"'  c #563028",
"]  c #54372E",
"[  c #5D322B",
"{  c #453E33",
"}  c #443F34",
"|  c #493F34",
" . c #5F3630",
".. c #5E3730",
"X. c #543C34",
"o. c #553F36",
"O. c #622123",
"+. c #602A26",
"@. c #662A26",
"#. c #602E29",
"$. c #662D29",
"%. c #6E2B2A",
"&. c #7C2629",
"*. c #762928",
"=. c #77292B",
"-. c #722E2C",
";. c #782D2D",
":. c #792D2D",
">. c #7A2F2E",
",. c #7D2D2D",
"<. c #72312F",
"1. c #7E2F30",
"2. c #683933",
"3. c #6F3933",
"4. c #6E3E37",
"5. c #623F38",
"6. c #743732",
"7. c #713C36",
"8. c #763C35",
"9. c #3E4A33",
"0. c #454130",
"q. c #484136",
"w. c #4A4339",
"e. c #4F4D39",
"r. c #4E4A3F",
"t. c #61432F",
"y. c #6F413B",
"u. c #74443E",
"i. c #4B4D42",
"p. c #4D4F43",
"a. c #514A40",
"s. c #524C41",
"d. c #544C42",
"f. c #564C43",
"g. c #5F584D",
"h. c #714943",
"j. c #764C46",
"k. c #774C47",
"l. c #7B4F4A",
"z. c #7D4F49",
"x. c #655E53",
"c. c #6C6358",
"v. c #6E675E",
"b. c #6D6960",
"n. c #7E7269",
"m. c #802C2E",
"M. c #812F2F",
"N. c #8A2A31",
"B. c #8B2F33",
"V. c #932E32",
"C. c #922F32",
"Z. c #9E2C31",
"A. c #823634",
"S. c #853D39",
"D. c #843F3C",
"F. c #893D3A",
"G. c #933235",
"H. c #9E3237",
"J. c #90383A",
"K. c #943B3A",
"L. c #9B3C3D",
"P. c #A43138",
"I. c #AB333A",
"U. c #AD333B",
"Y. c #A8383C",
"T. c #B0353D",
"R. c #B9353E",
"E. c #83413C",
"W. c #A83E40",
"Q. c #B13D41",
"!. c #BF3F48",
"~. c #C53741",
"^. c #CA3842",
"/. c #CC3944",
"(. c #CD3E47",
"). c #D53A46",
"_. c #DE3D49",
"`. c #DC3F4A",
"'. c #864741",
"]. c #844B46",
"[. c #8C4A46",
"{. c #8F4F4C",
"}. c #964643",
"|. c #924A46",
" X c #9B4D47",
".X c #89514D",
"XX c #99524E",
"oX c #8D5652",
"OX c #915250",
"+X c #915754",
"@X c #925855",
"#X c #9C5A57",
"$X c #9A5F5B",
"%X c #AA5553",
"&X c #A95554",
"*X c #B85858",
"=X c #81756B",
"-X c #80766D",
";X c #85776C",
":X c #A96664",
">X c #B16767",
",X c #D04149",
"<X c #DE434D",
"1X c #C74F56",
"2X c #D74750",
"3X c #DE4850",
"4X c #DC4A51",
"5X c #C65055",
"6X c #D25054",
"7X c #D9585C",
"8X c #EF4250",
"9X c #E14F55",
"0X c #E24E54",
"qX c #E94955",
"wX c #E94D56",
"eX c #E05256",
"rX c #E05458",
"tX c #E6575B",
"yX c #E6555D",
"uX c #E4585C",
"iX c #E45A5D",
"pX c #E7595F",
"aX c #E55F61",
"sX c #E65D65",
"dX c #D06065",
"fX c #ED6265",
"gX c #E2676B",
"hX c #E5656B",
"jX c #ED6A6D",
"kX c #F16265",
"lX c #F16A6D",
"zX c #EE6E72",
"xX c #F2737A",
"cX c #F8767A",
"vX c #F7787C",
"bX c #878379",
"nX c #DC7F82",
"mX c #958A80",
"MX c #9F968D",
"NX c #A3978F",
"BX c #E58589",
"VX c #F38E93",
"CX c #FF8A90",
"ZX c #FF9198",
/* pixels */
"                                                                ",
"                                                                ",
"                                                                ",
"                                                                ",
"                                                                ",
"                                                                ",
"                                                                ",
"              j u..X].[.E.` *                                   ",
"          o k.#X%X4.! ' [ 2.7.                                  ",
"        w @X+X@.*.C.^.R.&.` *X,                                 ",
"        ^ |.& 1.6.G.B.:.Y $X..4                                 ",
"        n ] , l u.i , j k Q N.P                                 ",
"        X.VXnX:XoX{.F.J.1X'.x T                                 ",
"        ( BX>XgXZXCXxXt. X&XS ;.8                               ",
"        ) h.5.#.7XcXdXz L qXO.e.0.$                             ",
"        h l. .A.iXjXjX!.2X6.0.~ S.,.                            ",
"          OX}.H 6XvXzXfXkX8._ W.8X%.                            ",
"          d ,XtXfXiX4XiXrX4X~._.U.s   w w                       ",
"            A (.wX4X0X0X<X<X).H.Z   w.B                         ",
"              Z ,.P.T.I.C.;.H 9   a.x.      w 5                 ",
"                = w 8 h 7.K.Q.F . v.d.N } 5 w                   ",
"                  = S.$.L.-.Z.L i.NXmXb.B                       ",
"                  X.sXL + * p.bXNXn.n.V w   w                   ",
"                  k.1X@ i.;X-Xd.m , q.c.g.q.w                   ",
"                  T Y.F d.| h # a     +                         ",
"                    +.C X 9 0 3 a                               ",
"                    q z.R v XX,.                                ",
"                    v hX/.` yXM.                                ",
"                      L R , a w                                 ",
"                                                                ",
"                                                                ",
"                                                                "
};
