/* XPM */
static char *wall1659018750[] = {
/* columns rows colors chars-per-pixel */
"64 64 67 1 ",
"  c #02141D",
". c #021721",
"X c #031A25",
"o c #081B25",
"O c #051E29",
"+ c #0A1F29",
"@ c #06212D",
"# c #0B222D",
"$ c #052532",
"% c #0C2632",
"& c #062936",
"* c #0D2935",
"= c #062A38",
"- c #0D2C39",
"; c #102732",
": c #102A36",
"> c #112D3A",
", c #0E313E",
"< c #13313E",
"1 c #19323E",
"2 c #0E3341",
"3 c #143542",
"4 c #193643",
"5 c #153846",
"6 c #1B3946",
"7 c #163B49",
"8 c #1B3D4B",
"9 c #213F4C",
"0 c #1D414E",
"q c #1E4452",
"w c #1F4857",
"e c #1F495A",
"r c #22424E",
"t c #224553",
"y c #244956",
"u c #294A56",
"i c #244D5C",
"p c #294E5B",
"a c #314F5A",
"s c #26505F",
"d c #2B505E",
"f c #32505B",
"g c #234F60",
"h c #255161",
"j c #2B5362",
"k c #2E5867",
"l c #295768",
"z c #2D5A6B",
"x c #315663",
"c c #325866",
"v c #305768",
"b c #325D6C",
"n c #3A5F6C",
"m c #2E5F71",
"M c #305F70",
"N c #35606F",
"B c #2F6273",
"V c #336273",
"C c #396575",
"Z c #3A6877",
"A c #346679",
"S c #3A6779",
"D c #35687A",
"F c #3B6B7C",
"G c #3C6E80",
"H c #3D7285",
"J c #437888",
/* pixels */
"@33345336880077q07qq00773,3-O.#%-*->***-,->*%%*-33--:>>331:>664$",
"izcxkcnbbVCSZFFVmDVBBmzzzmbi&-tjjjlzNmVFDAVAZAVDAAVCCCSZZZCVMxy-",
"bbcipyyiuppihzzdsgegeeseigjq%3zjyyeeghllllzzzzVBmzkkccxxxxxxxp6=",
"bCipuuiupyyyyyyqwseeiiihhilq&5Vpyggggegggeeeiisiyyyiuuuuuuuupj8&",
"bShupuyuyiiipssyessgegysighy%5Vhweeggggghssssssggiipppuauajhgh4&",
"bFdupipyyiuyyyswyssgsgsggelq$2Vkwssggggghsssssesiiupppppaggggp2&",
"zFfiiiiyiyiipisywhsssggeehi8$2Bhisesggggsssssegeiippppppgggggg2$",
"gFxipiiiyiyipiilwhhssggehil8%2mhwysegghhhsssseegeiphpppppgh988%$",
"pFpyiiiyiiipiphckiidssggsyst-=Bjyywessssssesegggipdpdpfdgu9pgy3$",
"zSpiuuiiiipiighhddyrsessgsdi<=zdwsespisysseggggeppppdpu9a9uggg4&",
"MMiyiiiipiiigpdddpduyseesysd<-zzwwsyiiiiesgeessipppjf9ppgjugh9>$",
"bkiiipippiihgjjpdpsdtssssssd,,zzwsyspiiigegeyiipippuujdpapgihg2$",
"khiiiiupipihhjxpdpppriduiidu%5zjsyuiuiiyesiiiyiijpupjddjhghggl5$",
"lbgpiphjhhhhhfdpddpdyrppipdt$5Nhisiuuiiywyyyisidptdjjjpphlhhg922",
"zj9644689668t6496161>1166rtr,,j01111661><60r61>1469994>:34982##$",
"77%$$O+@@##%*#+#;::;#;%%#;*>@@<########@@##:;#o o#;:;+++OO@OOOOO",
"7777555332-&*%$#@OO@57,,5507,--,57522<3333,-OOO,72$$323222445323",
"FDZZZVCCZSVCMbbbj3%dFVZFFFFZCNCFFFVVVZCZZVCBe$&VJGGvMGGGGGSJGGGG",
"kvczzljjjkcbbbnbh1<NNujkcfdfddkcjdpiijjjdpiiz5>VmmmGMGmvhvvvvvjv",
"jxjlhhiiiiiupppdt>,kppdppappiuiiippiipiyyyyeq$5Mgeeejhgpggugpagg",
"xxxjlhggipdjddjht,<ffpaaaapdppispysupiyyyiygq$5Mgpeg9phppgpppjjx",
"jxxjlhhipppfdddhy-<Naaaaapppssispppduiupyyee8@8beephtygppaupjaxv",
"jjxpjhgiddpjfkghw%>fffffadusssduppuppppyieyg5OqVpeghegdpuuppjfjj",
"jpjpahhipdffhhljw*>nfaaaddssssdppduppsisyyyy5X3GMeg9gehuugpupgjj",
"dhppphpppppfjhhjt;*Nffffdssjsdddppiusypiuyyy8O>GGyigiiiiaupyggpg",
"pgphgghpdppddhhkt#:Nfffdjhhhkffdapdspiiiiyiy8O3GAyiyiiiiugyyygyp",
"egigiiippppdhhgkr#:Ncddsjhssfddpdusyiduiyyyiy$2Sgyiiygiiuggggegi",
"ggiyiippppppidhfr#%Nkddssjddpppsuddsiuiuiqyi8O3Miyieiyegg9gygyyg",
"ggihihppphphhjxxu:-NNssdllkkkjjjsddcddppgyii3O9vigeegyggiiiiyhhg",
"99q08qryttqttttr6;-dkwyyyuutr0000ttrurrrq9982@8gqqqqqq888qq9q988",
"*#####%*:;;%*%;;;##0,**;;;#;#%########%%;%%%%O&2-%-%-:-*-:*--%--",
"XXXXX..OOXX..XXXo@X@X..X X     X  o@#XXXXXXXXOOXXXXX.XXXXX.XXXXX",
"00q0,.30888ttytttt0tyyyytut98888%@qwiswweiyeyysseeeq000qq5700wq0",
"Nlzh3X8jzlkkxfxpddjjzzzMMMMbkzky;-sFJDBAVVVCzzzBBVVBBBBBzlzzzbCZ",
"sygy1X8jpyipuuppdsppiiphhppggip8@*jFhgegyyppspyyppyyigeswyyyypps",
"gsyt<@0yiiigpppussssidphjghigpi6#-zmggseyppisssiyiihiieeyypyyypy",
"ggsq>Oryeeiipppuidsspjjjhhpppii4@*jzggeiippiipdpsipiigiiptiisyes",
"egsw-Oqpeipipphhissspxpjhhgihii4@=jlegsiiipiihippiiiiiyipyuiyseg",
"iist-Xeieipihhhhssssdppjjhpggig3X-kdiiiiipiiippgppiigiipuusygesg",
"hsj0*Xeliyiiphggessipdjppphggii4o:kdiiiiipigipiddipgggiduiseeggg",
"hgl8*Xelygighiggshdddjdhhhpgiig6X-dksippiiysipipssgessppiueesggg",
"ghh7%Xesyiiiiggihssshjjjgiigiip9o-zdupiiissyipppisgsiipidusegggg",
"hgh0*Xehiiiyigggsssdjhhhggigegj9@%kdudppsswsihppssseidpiidyggggg",
"hhh7*Oqdyiigygggyssdpigigigigpdt@;kdiipieeesphhhseiipiipidyggggh",
"lgg5>Xqdipyyyey9ttyppiiiiigippp9#;dddssssgsisiigsgysdppdsdhhghll",
"5433-.<7333>->:#;::>5533>3414111#*i66666076555780006666663467777",
"XOO@@X@O..X.......X..XX.X...   o X@@@#o@#@@XXXXO@####@@%##OXOOOX",
"2=$XXO#&2333=%%-3443:.X::>*#%;**--**>>*@X@*5775--@X@@@%@XXX#%$&-",
"DBmheglzVBBBNbzzljlg9@>9gjvvbMnMBzBzbVVciVVVMzkckkduhxt:X@8shhlm",
"zmBAADBBbzlhshxhgggg2.;gnvxvvvbzllhhhhcuVVCzhgipdkkkzjt%X-smllhl",
"gggghseyywyyyyypgeee2 2upupiiigisisispyytuyeippiyyuyiei1.-slgggg",
"gggeeighyiyypypigegy> :9pipippgghhhsyppptyiyppiusysyiyi0.#lzgggh",
"giehghieieeyyiiheggg2 2yiupjphpgljssiiiitiyippuuyygesey5 XsBgghh",
"gggihiheeeyyyeiyygye; 2giijajpjjjjjsiiiwwiiipdppyseeyes<  qAgehh",
"iihsiiiiyeeiiyeiyggg;X3yipjjjxjxxxjsieyqegiidppissesgge-  qAhegs",
"iidpyeieeiieiieieye9;.3yyppppdhdjjjdhgeqgeiippiywysyeee<  sVesss",
"iiiyweiiiiessiyieegq-.3yyuipdjpjhdhdsigweehhsiiiysysees< Xjzssss",
"ipiywwyisgisyiyiyyyq-X5yuippxjxhdddhsieeqeejjshissssews< #jdysui",
"pppiiiiiegeiiyyiygee-.3yiipjjjpgsissheig0qehdsiiesswees< -dpypdi",
"piiiiyyiehsisypiggee2 3yyipjhpgiisiiigegywgeissyewseees1 -dsiuii",
"hpiiiiiiiiyppyysgyeg3 2yigigggggiiiuhggghssggseysseeess6 >diiidu",
"9ttttttyeisyyyyeyig9>.-ywyyeyuttyiiuyywwr800weerqqweyit> :ptyyr0",
"#%%%;%**-<41>><<>>>-%X$:%%##;++++;;;+++#oo#o@@###@######X@%##;##",
".XXXXXXXXOOoXO#@XXXOOXX.oX.X                        X         OX"
};
