/* XPM */
static char *wall1659273191[] = {
/* columns rows colors chars-per-pixel */
"32 32 44 1 ",
"  c #001625",
". c #001926",
"X c #001E2B",
"o c #00222E",
"O c #022432",
"+ c #0A2735",
"@ c #022935",
"# c #082837",
"$ c #062738",
"% c #062C3A",
"& c #0A2D3C",
"* c #0A313E",
"= c #0C3341",
"- c #123543",
"; c #143946",
": c #1A3A47",
"> c #153D49",
", c #1A3D4B",
"< c #1C414E",
"1 c #164454",
"2 c #1D4552",
"3 c #1E4955",
"4 c #1F4C5A",
"5 c #22424F",
"6 c #224553",
"7 c #234A56",
"8 c #294A56",
"9 c #254C5A",
"0 c #2A4D5C",
"q c #25515D",
"w c #2B515E",
"e c #31535F",
"r c #254F60",
"t c #2A4E60",
"y c #304F61",
"u c #265261",
"i c #2C5462",
"p c #2E5965",
"a c #2D5868",
"s c #325563",
"d c #335966",
"f c #335B69",
"g c #36606E",
"h c #39606F",
/* pixels */
"21399uppiu9992@>111rr44r4r99909=",
"giuuqup99rt9r9-irrraattaaaayaai;",
"gi333442999996-ar4rrr4tt9999007&",
"gu9999uri9ti03=a9rrrttttrtt0097%",
"aq4q9999096tt6=ir6t9t66t8t00806&",
"f97q99tti99tit-i9tt9tttt0yyt008-",
"gq9qwwiiw97790-09tt66ttt0ttt0t0-",
"7*@****%*=&%=-O,$=$=$=$$$=$=$$= ",
"9w973732**890867979929&*t9t99it0",
"dffweege<6fefdssswwiip>9hsfaafaa",
"wwwwqwee;,ewe888087977*3i3999u0i",
"eww98www;<s0e88wwq7793*9i2399u9p",
"www8wwee*5eeeew8888808&wf6rt999r",
"0888w8we*<eeeeeeww8w06&6s6tt9999",
"6667778w:5e6e888888856-50,9,6r69",
"oooOOoo@oo&ooooooooOo$X$$O$OO$OO",
"03@>7997337qqq4<Opg7s09u9999444u",
"w7%<9qwqqqqqquq2%ee7ir9upu9ru9qu",
"06%7w90iwqwwqq92&iw7tt9099994499",
"w<@5w990w9wwwq8,%ww70900999t9999",
"w6@6i08tw0ewy085@0y0090t00000900",
"e7#20988800e8yy6=0yt00tttt9t090t",
"<>O;<>;;,::,:,5:#5,,,,6,65262,,6",
"@@X@%@OOOOO+oO+oO=$$$&&%@OOOOoO%",
"ppppppqqeq@>wddsepepdddwi0w=o7pw",
"qqqqqqq777@>6e0weqq7qww799w<@wwq",
"4343333397@<0wwwqq7337q7399>owwq",
"qq4q377q97@>0weippq33qww907>Xwww",
"q7777q777<o*8wwwqq73378q885:Xw88",
"w978wwq708%<weee8q888ww8w885oww0",
"6266888756#:575587755575855:o868",
"oO@##++*#&.++ooooooo.oooo.++ +oo"
};
