/* XPM */
static char *wall1659705843[] = {
/* columns rows colors chars-per-pixel */
"64 64 69 1 ",
"  c #02141D",
". c #021721",
"X c #031A25",
"o c #081A26",
"O c #041E29",
"+ c #091E29",
"@ c #05212D",
"# c #0B222D",
"$ c #052533",
"% c #0C2632",
"& c #062936",
"* c #0D2935",
"= c #072A38",
"- c #0E2D3A",
"; c #102630",
": c #102A36",
"> c #112D3A",
", c #182F3C",
"< c #0D313E",
"1 c #13313E",
"2 c #18323E",
"3 c #0E3441",
"4 c #143542",
"5 c #1A3643",
"6 c #153946",
"7 c #1B3946",
"8 c #153B49",
"9 c #1B3D4B",
"0 c #203E4C",
"q c #1D414E",
"w c #1E4453",
"e c #1F4857",
"r c #1F495A",
"t c #22424E",
"y c #224553",
"u c #234957",
"i c #294A56",
"p c #244C5B",
"a c #294E5B",
"s c #314F5A",
"d c #26505F",
"f c #2A505E",
"g c #31505B",
"h c #234F60",
"j c #255161",
"k c #2B5462",
"l c #2E5867",
"z c #275668",
"x c #2A5768",
"c c #2D5A6B",
"v c #315563",
"b c #325866",
"n c #325D6C",
"m c #395F6C",
"M c #2F5F71",
"N c #315F70",
"B c #33606F",
"V c #38606F",
"C c #2F6072",
"Z c #336273",
"A c #396575",
"S c #3C6877",
"D c #346679",
"F c #3B6779",
"G c #36697B",
"H c #3B6B7C",
"J c #3B6E80",
"K c #3D7184",
"L c #427787",
/* pixels */
"@4444455697qq88w89www884414-XX@%*******<<*>****-43--:>>441:>565@",
"plbvlvnnnVAAAHHAMDZCMccccMcp&-yflkllMZZGDDZZAZZDDZZAZAFAAAAZZvu-",
"nnbppuuuipppjllpddhhppphhhx9%1nxpperhjzlzzzccMBCcxxxvvbgvvvvka7=",
"nAppiipiiupiuueyrrrrpphpjpjw=4Bprprprrhrhrpppppppuipiisiiiiiik9$",
"nFaappiipuippudupdrrrdrdppzu%6Zdedrhhhhhhhddpddppppiaiaaijjjhk4$",
"nFkipipuupuipppueddddrdhhrhw$3Zlerdhhhhhdddrddrhhpapaaiaiijhha3&",
"cHappppuuupppappejddhdrrhph9$3Cjeprdhhhhdddddrrhpppaaaaakjhjhh3$",
"hSviippprpuipppjejdhdhhrphj0$-Zjeprhhhjjdddddrhhppaaaaaahih099#$",
"dSfpipppppppapdblupdddhdppdy%&Cdypprpddddddrhrhhphaaafffip0php3$",
"xSpuuippppppppfjffiqdrrdrddu<&Bzrpeppppppdhrrrhrhsaafv00i0jhhi4=",
"BBpippppppppfpfffafirdrddddf1-lleepppppprhrrpdpp0fjfs0ifkaiijh:$",
"cxupppppapddjjfaafpayddppudf<<clrppiapprhrdrppppffsf0vaajijhh03=",
"ljppppiappddjkfaaaaaypaappfi%3Bkppiuauprrdppypapjshsfffajhhhhk4$",
"lxfppiajjdddjfgfpsafytspafft%6Bjpupipaiwprpypppps0fjfjfkjzhzh04=",
"lkq64509976qt7572q72,,275ttt=<kq22,,272,>2qq7212450005>:,5994%%$",
"86%$#+OO@##%:###*;*;@#%%#%*>@@1#####;;@@@#;;;#o o%;:*+o@oo#O.OOX",
"8868464443-=%%$$OOO@68<=48q7<&=44844<<44411=@@X<74$$334333644433",
"GFSSAAAAAFANZcbnx4$fFAGHHJHSAnAHHSAZZAASAZABr@=CLJJcDJGJJJLJJJJH",
"lbnnxxzjkzbnnnnma41Vnufbbgkgffblfdpdpkjkfdppl3<ZMxMMNHMczlvbxxkv",
"kkjjjjpppuaiaaaay:-lafsfifaiuapupdppipiuuueuw&4nhphhkhhuupppiiak",
"vvvkljjjpaaaaakke><lgsssgaaaaappppaapiipuuprw$4Bhhhu0phaaaaaafvv",
"lgkkjjjppaakskhjy*1bfssssgaaddpppsaiaiipuprr9@qnppph0ppaaaaakfkv",
"kavajjpdkaakkkjjy%1gsssssafppdaaaiaiiapppuup8XwZypppuhhaaiaiakkk",
"kkfafjppsaaakkhke*,bgsssfaddddafaaaaapppuuru6X3JNpuyhrjiaiipavfk",
"akhaahkpaaagkhhky;%Bgggfffddjfgfsiaapppiuuuu8O<HKuppppppiappppha",
"paapphpaaaajkkhky#:Vbfgffdjjjggfaaappiauuuuu0O4JZrppppppapuuprpp",
"rhhpupaaaaaaahkkt;*Vggfdjfdfgfafaadppapuppuuy$1Fdupppprpupurrppp",
"rhrupppaaaaahhavt#%Bldddjjffaaapiddaippiuuwp8+4nuuuurpurupppprrh",
"hjhppjpapahhkjvvi;*BBddkklkllllfddlgffappupp4Owlrrrrprrrupuphphh",
"90w99qyyyuy0yyy07;-fkpyyiuiytqq9wyqtiqtqw0091O8pewwrwwwwwwwwww09",
"-#####%**;%%%%;#;@@q<**;#;#########;##;%%%%*%O$3-%%%-:***%*:*%**",
"XXoXX.XXOXX..XXX@X@XX  @.XX    .   @@@ @XXXXXXOOXXXX.XXXXX.XXXXX",
"qqqq1.1q9qqqyyytyytyuuruuuyy9999#@qepdrruhuuruphprrw9wwqw889qwwq",
"Bxlj4X9jklllkvgaffflllcNNnnnbxxu%%dGKGZDNNNAnccNNZZMMMMCczllnnVS",
"drrr2X9fppuaaiaappppppppphaphpp7@*lHjrrruuuappppppupppppwuupippd",
"dpdy1Xqpprppdfaiffjpapkajhhhapp7#*lChhhdpaaappppppppprrpiuupuipp",
"rhdw>@qurrpdapfppdddpakkkhpppap5@*dzrrdrpiapahaaipppppppuiudpppp",
"hrjw-Xqprppupajapddpkaakakhpppp4@%lzhhpppppppapjaaapppppfiuupprp",
"hpjy-Xepepudakhjphddakkakpakphh5X-ldppappaappaappkpphpppuiuprhdr",
"hpjw*Xedpppdhphhrddpakaaakhpphp4X*lfpppppppppppkappphhppauprhrhd",
"jpk9*Xrjuppphhjpddaffjfkjahhppp7o-fbfududpppppaapdrhdddfiudrhhhh",
"jjj8*Xujupppphhhjddffjkjhhpprpa0X%cfaiududpppaapphdhppaufirrrhhh",
"jhj9*Xrjuhppprhhpddafjjfhrhphpj0@%cfufupddrphakadpprufdudfydhhhh",
"jjj8*Xyjypphpphppdddaphphhphhafy#*fadufdrrrdahpaddpdudfupfprhhhh",
"hhh6-X9jihpuruu0yuupdpppppppfaat#%ldfddfhdpahhahdpdpaaiipfjjhhzz",
"7541:X4844,::::%%;:,4444>14,2,,,#%y77775q68445888q97777q64598888",
"OOO@@XOO ......  .....Xo...    o X@@@@ #@@OXXXXO######@##%X OOO.",
"3=$XXX#=3443-$$:4444>.X%>>*%#;%*--%-*1>@X@*6884<*@@OO@=@X.X@*%*=",
"DCczrrxCCCCMcnccxkzh9@%0hknnnNZZCMMMcZAbpZZZnxlllkfuflt>X@9djjcC",
"xMCDGDCZclzjjklfphhp3.:pmkkvvxbczjdjjdbinAZljapafkllljy#.-dMjzjz",
"hrhhpppruuuuyiuurrrh>.:hauipppppdddppppytpuuppapuuuuypp1.*jzhhhh",
"hhhrhrhrpuuuippphrhr:o:0aiahaphhjddpapuatpppappifupppppq.@zcrhhd",
"hhphpjppureuuppprhrr>.:upphkaaapjjfdppppypupaaiiuprpprr6 XdChhhj",
"jrhpjpprrurppuprppup-.4upiaskkkkjljfjrruepppasapupprprd2  wDhrdh",
"ppjfppppreurrprpprpe%.4ppakkkkafvvkfprrwrrppaaapuppprrp*  wDjrhd",
"ppppurpruprppprueerp%.4ruaaaakkkkkjfdruwprppppappppprrp-  rZprdd",
"pppuwrrpprppppuprure:.4uuuuakgkpffjkpphwerhddpppppdprrd1 Xjnudpf",
"papuueppjrhppppurrre:.4yipakkkkkdffdppruwrrdfdpppdpprrh2 #lfpdau",
"aappppupprjppiupuuur-.4ppppkkkhppdpjjrhhqwrdfdppppdrrer1 *kdyaau",
"uppppupprjrpppppphrr3 4yupaakppppppphprheehrdppppyrrrrp2 *fuupud",
"fpppuppppppppipphurh4.-uupphphpppppiphhhdddhrdryrdrrppp7 >diaddd",
"qtyyuywurppuyuuuuhrr:.3wrrruuuuuuuiiuuweqqqqrreqwwerpuy, *pyyytq",
"@##%##%**15,:>11::>:%X@*%#####+++%;;#+#Oo #o@###@######@X#;###;#",
"X.oOXXOX.OOoXO#OXXXOOXoXXoX.                                  @ "
};
